<mxfile host="Electron" modified="2023-08-08T06:09:59.039Z" agent="Mozilla/5.0 (X11; Linux x86_64) AppleWebKit/537.36 (KHTML, like Gecko) draw.io/21.2.1 Chrome/112.0.5615.87 Electron/24.1.2 Safari/537.36" etag="qWoyMGLreL0y8vBc1eht" version="21.2.1" type="device">
  <diagram name="Page-1" id="1h1sp8e6TO-P6VdBHeHq">
    <mxGraphModel dx="1434" dy="942" grid="1" gridSize="10" guides="1" tooltips="1" connect="1" arrows="1" fold="1" page="1" pageScale="1" pageWidth="850" pageHeight="1100" math="0" shadow="0">
      <root>
        <mxCell id="0" />
        <mxCell id="1" parent="0" />
        <mxCell id="Pd571a1XGvd4QOsNYKeU-5" value="" style="rounded=0;whiteSpace=wrap;html=1;" parent="1" vertex="1">
          <mxGeometry x="462" y="80" width="200" height="355" as="geometry" />
        </mxCell>
        <mxCell id="Pd571a1XGvd4QOsNYKeU-80" value="" style="rounded=0;whiteSpace=wrap;html=1;" parent="1" vertex="1">
          <mxGeometry x="512" y="213" width="120" height="145" as="geometry" />
        </mxCell>
        <mxCell id="Pd571a1XGvd4QOsNYKeU-79" value="" style="rounded=0;whiteSpace=wrap;html=1;" parent="1" vertex="1">
          <mxGeometry x="512" y="156.25" width="120" height="52.5" as="geometry" />
        </mxCell>
        <mxCell id="Pd571a1XGvd4QOsNYKeU-3" value="" style="rounded=0;whiteSpace=wrap;html=1;" parent="1" vertex="1">
          <mxGeometry x="261" y="80" width="200" height="355" as="geometry" />
        </mxCell>
        <mxCell id="Pd571a1XGvd4QOsNYKeU-1" value="&lt;b&gt;b) Forward-Forward&amp;nbsp;&lt;/b&gt;&lt;b style=&quot;border-color: var(--border-color);&quot;&gt;Algorithm&lt;/b&gt;" style="text;whiteSpace=wrap;html=1;" parent="1" vertex="1">
          <mxGeometry x="271" y="80" width="180" height="30" as="geometry" />
        </mxCell>
        <mxCell id="Pd571a1XGvd4QOsNYKeU-2" value="&lt;div style=&quot;text-align: center;&quot;&gt;&lt;b style=&quot;background-color: initial;&quot;&gt;&lt;font color=&quot;#330000&quot;&gt;c)&lt;/font&gt;&lt;font color=&quot;#ff0000&quot;&gt; Distributed&lt;/font&gt; Forward-Forward&amp;nbsp;&lt;/b&gt;&lt;/div&gt;&lt;b&gt;&lt;div style=&quot;text-align: center;&quot;&gt;&lt;b style=&quot;background-color: initial; border-color: var(--border-color);&quot;&gt;Algorithm&lt;/b&gt;&lt;/div&gt;&lt;/b&gt;" style="text;whiteSpace=wrap;html=1;" parent="1" vertex="1">
          <mxGeometry x="477" y="79.5" width="190" height="30" as="geometry" />
        </mxCell>
        <mxCell id="Pd571a1XGvd4QOsNYKeU-21" value="" style="rounded=0;whiteSpace=wrap;html=1;" parent="1" vertex="1">
          <mxGeometry x="60" y="80" width="200" height="355" as="geometry" />
        </mxCell>
        <mxCell id="Pd571a1XGvd4QOsNYKeU-22" value="&lt;b&gt;a) Back-propagation&amp;nbsp;Algorithm&lt;/b&gt;" style="text;whiteSpace=wrap;html=1;" parent="1" vertex="1">
          <mxGeometry x="70" y="80" width="180" height="30" as="geometry" />
        </mxCell>
        <mxCell id="Pd571a1XGvd4QOsNYKeU-23" style="edgeStyle=orthogonalEdgeStyle;rounded=0;orthogonalLoop=1;jettySize=auto;html=1;entryX=0.5;entryY=0;entryDx=0;entryDy=0;" parent="1" source="Pd571a1XGvd4QOsNYKeU-24" target="Pd571a1XGvd4QOsNYKeU-26" edge="1">
          <mxGeometry relative="1" as="geometry" />
        </mxCell>
        <mxCell id="Pd571a1XGvd4QOsNYKeU-24" value="Layer0" style="rounded=1;whiteSpace=wrap;html=1;" parent="1" vertex="1">
          <mxGeometry x="120" y="180" width="60" height="30" as="geometry" />
        </mxCell>
        <mxCell id="Pd571a1XGvd4QOsNYKeU-25" style="edgeStyle=orthogonalEdgeStyle;rounded=0;orthogonalLoop=1;jettySize=auto;html=1;entryX=0.5;entryY=0;entryDx=0;entryDy=0;" parent="1" source="Pd571a1XGvd4QOsNYKeU-26" target="Pd571a1XGvd4QOsNYKeU-28" edge="1">
          <mxGeometry relative="1" as="geometry" />
        </mxCell>
        <mxCell id="Pd571a1XGvd4QOsNYKeU-26" value="Layer1" style="rounded=1;whiteSpace=wrap;html=1;" parent="1" vertex="1">
          <mxGeometry x="120" y="230" width="60" height="30" as="geometry" />
        </mxCell>
        <mxCell id="Pd571a1XGvd4QOsNYKeU-27" style="edgeStyle=orthogonalEdgeStyle;rounded=0;orthogonalLoop=1;jettySize=auto;html=1;entryX=0.5;entryY=0;entryDx=0;entryDy=0;" parent="1" source="Pd571a1XGvd4QOsNYKeU-28" target="Pd571a1XGvd4QOsNYKeU-29" edge="1">
          <mxGeometry relative="1" as="geometry" />
        </mxCell>
        <mxCell id="Pd571a1XGvd4QOsNYKeU-28" value="Layer2" style="rounded=1;whiteSpace=wrap;html=1;" parent="1" vertex="1">
          <mxGeometry x="120" y="280" width="60" height="30" as="geometry" />
        </mxCell>
        <mxCell id="Pd571a1XGvd4QOsNYKeU-33" style="edgeStyle=orthogonalEdgeStyle;rounded=0;orthogonalLoop=1;jettySize=auto;html=1;" parent="1" source="Pd571a1XGvd4QOsNYKeU-29" target="Pd571a1XGvd4QOsNYKeU-32" edge="1">
          <mxGeometry relative="1" as="geometry" />
        </mxCell>
        <mxCell id="Pd571a1XGvd4QOsNYKeU-29" value="Layer3" style="rounded=1;whiteSpace=wrap;html=1;" parent="1" vertex="1">
          <mxGeometry x="120" y="330" width="60" height="30" as="geometry" />
        </mxCell>
        <mxCell id="Pd571a1XGvd4QOsNYKeU-30" style="edgeStyle=orthogonalEdgeStyle;rounded=0;orthogonalLoop=1;jettySize=auto;html=1;entryX=0.5;entryY=0;entryDx=0;entryDy=0;" parent="1" source="Pd571a1XGvd4QOsNYKeU-31" target="Pd571a1XGvd4QOsNYKeU-24" edge="1">
          <mxGeometry relative="1" as="geometry" />
        </mxCell>
        <mxCell id="Pd571a1XGvd4QOsNYKeU-31" value="" style="shape=image;verticalLabelPosition=bottom;labelBackgroundColor=default;verticalAlign=top;aspect=fixed;imageAspect=0;image=data:image/png,iVBORw0KGgoAAAANSUhEUgAAAZAAAAGQCAYAAACAvzbMAAAAOXRFWHRTb2Z0d2FyZQBNYXRwbG90bGliIHZlcnNpb24zLjcuMSwgaHR0cHM6Ly9tYXRwbG90bGliLm9yZy/bCgiHAAAACXBIWXMAAA9hAAAPYQGoP6dpAAAkPklEQVR4nO3df3BU9b3/8dcmgYQfyULI7wohQUEvP+I0lZRBYigxIVIrwu0VwVvwUgVMqEAVL1RFlGlaKi3SItppS1oFf3DHwMi1CEQCFwW8RCKFXjKQRhMHEn6M7EKQEMn5/uGXHdcEcvIh2bNJn4+ZM5M9571n38cP7iufczZnXZZlWQIAoI1CnG4AANA5ESAAACMECADACAECADBCgAAAjBAgAAAjBAgAwAgBAgAwQoAAAIwQIAAAIwQIAMAIAQIAMEKAAACMECAAACMECADACAECADBCgAAAjBAgAAAjBAgAwAgBAgAwQoAAAIwQIAAAIwQIAMAIAQIAMEKAAACMECDodLKysjRjxgyn27Bl4MCBfr2WlpbK5XKptLS03V7D5XLpmWeeabf9AXYRIPBTVVWlgoICDR48WD179lTPnj31L//yL8rPz9fBgwclffUG7nK5Wl3svKlVVlYqIiJCLpdL+/fvb9djKSoq8usnIiJCgwcPVkFBgerq6tr1tTraO++8E/Qh0ZFjieAU5nQDCB6bN2/Wfffdp7CwME2bNk1paWkKCQnRkSNH9NZbb2nNmjWqqqrSz372M/34xz/2Pe9///d/tWrVKi1evFi33HKLb/2IESNafc358+crLCxMDQ0NHXJMkvTss88qJSVFFy9e1O7du7VmzRq98847OnTokHr27Nlhr9uSzMxMffHFF+revXubnvfOO+9o9erVLYbIF198obAw5/9XDsRYIrg4/68OQaGyslJTpkxRcnKySkpKlJiY6Lf9l7/8pV588UWFhITozjvv9NsWERGhVatW6c4771RWVpbt13z33Xf17rvvauHChVq2bFl7HEaL8vLy9J3vfEeS9OMf/1j9+vXTr3/9a23atEn3339/i8+pr69Xr1692r2XkJAQRUREtOs+23t/JgI1lggunMKCJGn58uWqr6/X2rVrm4WHJIWFheknP/mJ+vfvb3ufHo9HR44ckcfjabatsbFRjz76qB599FENGjTounpvq+9973uSvjpdJ0kzZsxQ7969VVlZqbvuukuRkZGaNm2aJKmpqUkrV67U0KFDFRERofj4eM2aNUuff/653z4ty9KyZct0ww03qGfPnho7dqwOHz7c7LWvdg1k3759uuuuu9S3b1/16tVLI0aM0AsvvODrb/Xq1ZLkd0ruipZOFx44cEB5eXmKiopS7969NW7cOO3du9ev5sopvvfff18LFixQbGysevXqpXvvvVenTp3yqw3WsYSzCBBI+ur01Y033qiMjIx222dxcbFuueUWFRcXN9u2cuVKff7553ryySfb7fXsqqyslCT169fPt+7LL79Ubm6u4uLi9Pzzz2vy5MmSpFmzZunxxx/X6NGj9cILL+jBBx/UunXrlJubq8bGRt/zn376aT311FNKS0vTr371K6WmpionJ0f19fWt9rNt2zZlZmbq73//ux599FGtWLFCY8eO1ebNm309XJn1vfLKK77lag4fPqwxY8bo448/1sKFC/XUU0+pqqpKWVlZ2rdvX7P6uXPn6uOPP9aSJUs0Z84cvf322yooKPCrCdaxhLM4hQV5vV4dP35cEydObLbt7Nmz+vLLL32Pe/XqpR49elzX69XW1uq5557T888/r6ioqOvalx0ej0enT5/WxYsX9f777+vZZ59Vjx499P3vf99X09DQoB/+8IcqLCz0rdu9e7f+8Ic/aN26dZo6dapv/dixYzV+/Hht2LBBU6dO1alTp7R8+XJNmDBBb7/9tm928LOf/Uw///nPr9nb5cuXNWvWLCUmJqq8vFx9+vTxbbMsS5I0atQoDR48WNu2bdMDDzzQ6vE++eSTamxs1O7du5WamipJ+tGPfqQhQ4Zo4cKF2rlzp199v379tHXrVl/fTU1NWrVqlTwej9xu9zVfK9BjieDCDATyer2SpN69ezfblpWVpdjYWN9y5VSKHTNmzJBlWc0+cvvEE08oNTXV70J8R8rOzlZsbKz69++vKVOmqHfv3iouLta3vvUtv7o5c+b4Pd6wYYPcbrfuvPNOnT592rekp6erd+/e2rFjhyRp+/btunTpkubOnet3amnevHmt9nbgwAFVVVVp3rx5fuEhyW9fdl2+fFlbt27VxIkTfeEhSYmJiZo6dap2797tG+8rHn74Yb/XGjNmjC5fvqxPP/3Uty5YxhLBhRkIFBkZKUk6f/58s20vv/yyzp07p7q6Olu//bZm7969euWVV1RSUqKQkMD8/rJ69WoNHjxYYWFhio+P15AhQ5q9dlhYmG644Qa/dUePHpXH41FcXFyL+z158qQk+d5ob7rpJr/tsbGx6tu37zV7u3I6bdiwYfYP6BpOnTqlCxcuaMiQIc223XLLLWpqalJNTY2GDh3qWz9gwAC/uis9f/M6zzc5MZYILgQI5Ha7lZiYqEOHDjXbduWayCeffNIur7Vw4UKNGTNGKSkpvn2ePn1aknTixAlVV1c3e0O7XiNHjvR9CutqwsPDm70JNjU1KS4uTuvWrWvxObGxse3Wo5NCQ0NbXH/lFNrVODGWCC4ECCRJEyZM0B/+8Ad9+OGHGjlyZIe9TnV1tT799FOlpKQ02/aDH/xAbrdbZ8+e7bDXb4tBgwZp+/btGj169DWv+yQnJ0v6asby9dNGp06davW3+CufWjp06JCys7OvWmf3dFZsbKx69uypioqKZtuOHDmikJCQNn2S7lo601iiYzDvhKSvfpvs2bOn/uM//qPFv9Ju7bfRlrT00c/f//73Ki4u9lvmzp0rSXr++eev+tu+E/7t3/5Nly9f1nPPPdds25dfful7c8zOzla3bt3029/+1u+/08qVK1t9jW9/+9tKSUnRypUrm73Zfn1fV/4mpbU35NDQUOXk5GjTpk1+s8a6ujqtX79et99+u9HF7s4+lugYzEAg6avz9+vXr9f999+vIUOG+P4S3bIsVVVVaf369QoJCWl2neBaiouL9eCDD2rt2rW+i685OTnN6q68Kd5xxx2tnmoKpDvuuEOzZs1SYWGhysvLlZOTo27duuno0aPasGGDXnjhBf3rv/6rYmNj9dhjj6mwsFDf//73ddddd+nAgQP661//qpiYmGu+RkhIiNasWaO7775bt956qx588EElJibqyJEjOnz4sN59911JUnp6uiTpJz/5iXJzcxUaGqopU6a0uM9ly5Zp27Ztuv322/XII48oLCxML7/8shoaGrR8+XKj/xadfSzRMQgQ+Nxzzz3629/+phUrVmjr1q3605/+JJfLpeTkZE2YMEGzZ89WWlqa020G1EsvvaT09HS9/PLLWrx4scLCwjRw4EA98MADGj16tK9u2bJlioiI0EsvvaQdO3YoIyNDW7du1YQJE1p9jdzcXO3YsUNLly7VihUr1NTUpEGDBumhhx7y1UyaNElz587V66+/rldffVWWZV01QIYOHar/+Z//0aJFi1RYWKimpiZlZGTo1Vdfbde/8wFclsm5CcBBWVlZGjhwoIqKipxuBfinxjUQAIARAgQAYIQAAQAY4RoIAMAIMxAAgBECBABgpMv8HUhTU5OOHz+uyMhIo7uYAkCwsCxL586dU1JSUlDfqLLLBMjx48fb7R4/ABAMampq2nT3h0ALqmhbvXq1Bg4cqIiICGVkZOjDDz+0/dwrtyQHgK4i2N/XgiZA3njjDS1YsEBLlizRRx99pLS0NOXm5vq+c6E1nLYC0NUE+/ta0HyMNyMjQ7fddpt+97vfSfrqmkb//v01d+5c/ed//merz/d6va1+/SYAdCYejyeovyo4KGYgly5dUllZmd/3IYSEhCg7O1t79uxxsDMAwNUExUX006dP6/Lly4qPj/dbHx8fryNHjrT4nIaGBjU0NPgef/N7ngEAHSsoZiAmCgsL5Xa7fQufwAKAwAqKAImJiVFoaGizb8Krq6tTQkJCi89ZtGiRPB6Pb6mpqQlEqwCA/y8oAqR79+5KT09XSUmJb11TU5NKSko0atSoFp8THh6uqKgovwUAEDhBcQ1EkhYsWKDp06frO9/5jkaOHKmVK1eqvr5eDz74oNOtAQBaEDQBct999+nUqVN6+umnVVtbq1tvvVVbtmxpdmEdABAcgubvQK4XfwcCoKvh70AAAF0SAQIAMEKAAACMECAAACMECADACAECADBCgAAAjBAgAAAjBAgAwAgBAgAwQoAAAIwQIAAAIwQIAMAIAQIAMEKAAACMECAAACMECADACAECADBCgAAAjBAgAAAjBAgAwAgBAgAwQoAAAIwQIAAAIwQIAMAIAQIAMEKAAACMECAAACMECADACAECADBCgAAAjBAgAAAjBAgAwAgBAgAwQoAAAIwQIAAAIwQIAMAIAQIAMEKAAACMECAAACMECADACAECADBCgAAAjIQ53QC6pri4ONu1b775pu3aDz74wHbt73//e9u1n3zyie1atJ3b7bZdm5mZabt2y5YttmsbGxtt18KeoJmBPPPMM3K5XH7LzTff7HRbAICrCKoZyNChQ7V9+3bf47CwoGoPAPA1QfUOHRYWpoSEBKfbAADYEDSnsCTp6NGjSkpKUmpqqqZNm6bq6mqnWwIAXEXQzEAyMjJUVFSkIUOG6MSJE1q6dKnGjBmjQ4cOKTIysll9Q0ODGhoafI+9Xm8g2wWAf3pBEyB5eXm+n0eMGKGMjAwlJyfrzTff1MyZM5vVFxYWaunSpYFsEQDwNUF1Cuvr+vTpo8GDB+vYsWMtbl+0aJE8Ho9vqampCXCHAPDPLWgD5Pz586qsrFRiYmKL28PDwxUVFeW3AAACJ2gC5LHHHtPOnTv1ySef6IMPPtC9996r0NBQ3X///U63BgBoQdBcA/nss890//3368yZM4qNjdXtt9+uvXv3KjY21unWAAAtCJoAef31151uAa3o27ev7drDhw/brm3LbS7q6ups13J7ko7VlnErKyuzXduWXxrT09Nt117teirMBc0pLABA50KAAACMECAAACMECADACAECADBCgAAAjBAgAAAjBAgAwAgBAgAwQoAAAIwEza1M4IyYmBjbtW+88Ybt2ujoaNu1L774ou3auXPn2q5Fx3ryySdt16akpNiunTVrlu1abk/iLGYgAAAjBAgAwAgBAgAwQoAAAIwQIAAAIwQIAMAIAQIAMEKAAACMECAAACMECADAiMuyLMvpJtqD1+uV2+12uo1OJycnx3btX//61w7pISEhwXbtqVOnOqQHfGXo0KG2a//2t7/Zri0uLrZdO2PGDNu1586ds13bGXk8HkVFRTndxlUxAwEAGCFAAABGCBAAgBECBABghAABABghQAAARggQAIARAgQAYIQAAQAYIUAAAEbCnG4A7S8uLs527eTJkzukh5kzZ9qu5fYkHasttyfZvn17h/TQlluZdPXbk3QlzEAAAEYIEACAEQIEAGCEAAEAGCFAAABGCBAAgBECBABghAABABghQAAARggQAIARbmXSBa1YscJ27QMPPGC7tqyszHbthg0bbNeiY40ZM8Z2bXx8vO3aoqIi27Wvvvqq7Vp0HgGZgezatUt33323kpKS5HK5tHHjRr/tlmXp6aefVmJionr06KHs7GwdPXo0EK0BAAwFJEDq6+uVlpam1atXt7h9+fLlWrVqlV566SXt27dPvXr1Um5uri5evBiI9gAABgJyCisvL095eXktbrMsSytXrtSTTz6pe+65R5L0l7/8RfHx8dq4caOmTJkSiBYBAG3k+EX0qqoq1dbWKjs727fO7XYrIyNDe/bscbAzAMC1OH4Rvba2VlLzi3fx8fG+bS1paGhQQ0OD77HX6+2YBgEALXJ8BmKqsLBQbrfbt/Tv39/plgDgn4rjAZKQkCBJqqur81tfV1fn29aSRYsWyePx+JaampoO7RMA4M/xAElJSVFCQoJKSkp867xer/bt26dRo0Zd9Xnh4eGKioryWwAAgROQayDnz5/XsWPHfI+rqqpUXl6u6OhoDRgwQPPmzdOyZct00003KSUlRU899ZSSkpI0ceLEQLQHADAQkADZv3+/xo4d63u8YMECSdL06dNVVFSkhQsXqr6+Xg8//LDOnj2r22+/XVu2bFFEREQg2gMAGHBZlmU53UR78Hq9crvdTrcRFP7yl7/Yrp02bZrt2v/+7/+2XTt58mTbtY2NjbZru7IePXrYrl28eLHt2kceecR2bZ8+fWzXhoaG2q6FGY/HE9Sn5x2/BgIA6JwIEACAEQIEAGCEAAEAGCFAAABGCBAAgBECBABghAABABghQAAARggQAIARx79QCp3HhAkTbNdu3brVdu3Zs2dt165Zs8Z2bTC44447bNdmZWXZrv3ud79r0E3r/uu//qtD9ouuiRkIAMAIAQIAMEKAAACMECAAACMECADACAECADBCgAAAjBAgAAAjBAgAwAgBAgAw4rIsy3K6ifbg9XrldrudbiMopKen267duHGj7dqkpCSDblrncrls13a2f67BcGz/+Mc/bNeOHz/edm1lZaVJO2gDj8ejqKgop9u4KmYgAAAjBAgAwAgBAgAwQoAAAIwQIAAAIwQIAMAIAQIAMEKAAACMECAAACMECADASJjTDaD9lZWV2a4dMWKE7dpbb73Vdm1bbonx+OOP2649deqU7do///nPtms7yiuvvGK79uOPP+6QHj744APbtdyeBG3BDAQAYIQAAQAYIUAAAEYIEACAEQIEAGCEAAEAGCFAAABGCBAAgBECBABghAABABhxWZZlOd1Ee/B6vXK73U63AfhJTU21XXvs2DHbteXl5bZrc3Nzbde25VYx6Hgej0dRUVFOt3FVAZmB7Nq1S3fffbeSkpLkcrm0ceNGv+0zZsyQy+XyW9pyLyUAQOAFJEDq6+uVlpam1atXX7Vm/PjxOnHihG957bXXAtEaAMBQQO7Gm5eXp7y8vGvWhIeHKyEhIRDtAADaQdBcRC8tLVVcXJyGDBmiOXPm6MyZM063BAC4hqD4PpDx48dr0qRJSklJUWVlpRYvXqy8vDzt2bNHoaGhLT6noaFBDQ0NvsderzdQ7QIAFCQBMmXKFN/Pw4cP14gRIzRo0CCVlpZq3LhxLT6nsLBQS5cuDVSLAIBvCJpTWF+XmpqqmJiYa36scdGiRfJ4PL6lpqYmgB0CAIJiBvJNn332mc6cOaPExMSr1oSHhys8PDyAXQEAvi4gAXL+/Hm/2URVVZXKy8sVHR2t6OhoLV26VJMnT1ZCQoIqKyu1cOFC3XjjjW36AygAQGAFJED279+vsWPH+h4vWLBAkjR9+nStWbNGBw8e1J///GedPXtWSUlJysnJ0XPPPccMAwCCGLcyATpQUVGR7dp///d/t13bljs1bNu2zXYtggu3MgEAdEkECADACAECADBCgAAAjBAgAAAjBAgAwAgBAgAwQoAAAIwQIAAAIwQIAMBIUN6NFwhmP/zhD23X/uhHP7Jde+7cOdu1fGMnggEzEACAEQIEAGCEAAEAGCFAAABGCBAAgBECBABghAABABghQAAARggQAIARAgQAYIRbmQBtlJeX1yH73bx5s+3ajz76qEN6ANqCGQgAwAgBAgAwQoAAAIwQIAAAIwQIAMAIAQIAMEKAAACMECAAACMECADACAECADDCrUyANmrLrUzq6+tt165YscKkHcAxzEAAAEYIEACAEQIEAGCEAAEAGCFAAABGCBAAgBECBABghAABABghQAAARggQAIARbmUCSJo9e7bt2vj4eNu1J0+etF370Ucf2a4FgkFAZiCFhYW67bbbFBkZqbi4OE2cOFEVFRV+NRcvXlR+fr769eun3r17a/LkyaqrqwtEewAAAwEJkJ07dyo/P1979+7Vtm3b1NjYqJycHL8bzc2fP19vv/22NmzYoJ07d+r48eOaNGlSINoDABgIyCmsLVu2+D0uKipSXFycysrKlJmZKY/Hoz/+8Y9av369vve970mS1q5dq1tuuUV79+7Vd7/73UC0CQBoA0cuons8HklSdHS0JKmsrEyNjY3Kzs721dx8880aMGCA9uzZ40SLAIBWBPwielNTk+bNm6fRo0dr2LBhkqTa2lp1795dffr08auNj49XbW1ti/tpaGhQQ0OD77HX6+2wngEAzQV8BpKfn69Dhw7p9ddfv679FBYWyu12+5b+/fu3U4cAADsCGiAFBQXavHmzduzYoRtuuMG3PiEhQZcuXdLZs2f96uvq6pSQkNDivhYtWiSPx+NbampqOrJ1AMA3BCRALMtSQUGBiouL9d577yklJcVve3p6urp166aSkhLfuoqKClVXV2vUqFEt7jM8PFxRUVF+CwAgcAJyDSQ/P1/r16/Xpk2bFBkZ6buu4Xa71aNHD7ndbs2cOVMLFixQdHS0oqKiNHfuXI0aNYpPYAFAkApIgKxZs0aSlJWV5bd+7dq1mjFjhiTpN7/5jUJCQjR58mQ1NDQoNzdXL774YiDaAwAYcFmWZTndRHvwer1yu91Ot4FOqry83Hbt8OHDbdcWFRXZrp05c6bt2sjISNu1ffv2tV1bXV1tuxYdz+PxBPXpeW6mCAAwQoAAAIwQIAAAIwQIAMAIAQIAMEKAAACMECAAACMECADACAECADBCgAAAjAT8C6WAfyaXL1+2XTtt2jTbtfPnz7dde/jwYdu106dPt10LMAMBABghQAAARggQAIARAgQAYIQAAQAYIUAAAEYIEACAEQIEAGCEAAEAGCFAAABGXJZlWU430R68Xq/cbrfTbaCTKi8vt107fPhw27Uul8t2bVv+V/zjH/9ou/a5556zXVtTU2O7Fh3P4/EoKirK6TauihkIAMAIAQIAMEKAAACMECAAACMECADACAECADBCgAAAjBAgAAAjBAgAwAgBAgAwEuZ0A0AwKCgosF377LPP2q7dtWuX7do1a9bYrv38889t1166dMl2LdAWzEAAAEYIEACAEQIEAGCEAAEAGCFAAABGCBAAgBECBABghAABABghQAAARggQAIARl2VZltNNtAev1yu32+10GwDQbjwej6Kiopxu46oCMgMpLCzUbbfdpsjISMXFxWnixImqqKjwq8nKypLL5fJbZs+eHYj2AAAGAhIgO3fuVH5+vvbu3att27apsbFROTk5qq+v96t76KGHdOLECd+yfPnyQLQHADAQkLvxbtmyxe9xUVGR4uLiVFZWpszMTN/6nj17KiEhIRAtAQCukyMX0T0ejyQpOjrab/26desUExOjYcOGadGiRbpw4YIT7QEAbAj494E0NTVp3rx5Gj16tIYNG+ZbP3XqVCUnJyspKUkHDx7UE088oYqKCr311lst7qehoUENDQ2+x16vt8N7BwB8jRVgs2fPtpKTk62amppr1pWUlFiSrGPHjrW4fcmSJZYkFhYWli67eDyejngbbjcB/RhvQUGBNm3apF27diklJeWatfX19erdu7e2bNmi3NzcZttbmoH079+/3XsGAKcE+8d4A3IKy7IszZ07V8XFxSotLW01PCSpvLxckpSYmNji9vDwcIWHh7dnmwCANghIgOTn52v9+vXatGmTIiMjVVtbK0lyu93q0aOHKisrtX79et11113q16+fDh48qPnz5yszM1MjRowIRIsAgLYKxHkyXeX83tq1ay3Lsqzq6morMzPTio6OtsLDw60bb7zRevzxx9t0/s/j8Th+vpKFhYWlPReugQQItzIB0NUE+zUQbqYIADBCgAAAjBAgAAAjBAgAwAgBAgAwQoAAAIwQIAAAIwQIAMAIAQIAMEKAAACMECAAACMECADACAECADBCgAAAjBAgAAAjBAgAwAgBAgAwQoAAAIwQIAAAIwQIAMBIlwkQy7KcbgEA2lWwv691mQA5d+6c0y0AQLsK9vc1lxXsEWdTU1OTjh8/rsjISLlcLt96r9er/v37q6amRlFRUQ522P44ts6JY+ucAnlslmXp3LlzSkpKUkhI8P6eH+Z0A+0lJCREN9xww1W3R0VFdbl/0FdwbJ0Tx9Y5BerY3G53h7/G9QreaAMABDUCBABgpMsHSHh4uJYsWaLw8HCnW2l3HFvnxLF1Tl352Ex1mYvoAIDA6vIzEABAxyBAAABGCBAAgBECBABgpEsHyOrVqzVw4EBFREQoIyNDH374odMtXbdnnnlGLpfLb7n55pudbsvIrl27dPfddyspKUkul0sbN270225Zlp5++mklJiaqR48eys7O1tGjR51pto1aO7YZM2Y0G8fx48c702wbFRYW6rbbblNkZKTi4uI0ceJEVVRU+NVcvHhR+fn56tevn3r37q3Jkyerrq7OoY7ts3NsWVlZzcZu9uzZDnXsrC4bIG+88YYWLFigJUuW6KOPPlJaWppyc3N18uRJp1u7bkOHDtWJEyd8y+7du51uyUh9fb3S0tK0evXqFrcvX75cq1at0ksvvaR9+/apV69eys3N1cWLFwPcadu1dmySNH78eL9xfO211wLYobmdO3cqPz9fe/fu1bZt29TY2KicnBzV19f7aubPn6+3335bGzZs0M6dO3X8+HFNmjTJwa7tsXNskvTQQw/5jd3y5csd6thhVhc1cuRIKz8/3/f48uXLVlJSklVYWOhgV9dvyZIlVlpamtNttDtJVnFxse9xU1OTlZCQYP3qV7/yrTt79qwVHh5uvfbaaw50aO6bx2ZZljV9+nTrnnvucaSf9nby5ElLkrVz507Lsr4ap27dulkbNmzw1fzf//2fJcnas2ePU20a+eaxWZZl3XHHHdajjz7qXFNBpEvOQC5duqSysjJlZ2f71oWEhCg7O1t79uxxsLP2cfToUSUlJSk1NVXTpk1TdXW10y21u6qqKtXW1vqNodvtVkZGRpcYQ0kqLS1VXFychgwZojlz5ujMmTNOt2TE4/FIkqKjoyVJZWVlamxs9Bu7m2++WQMGDOh0Y/fNY7ti3bp1iomJ0bBhw7Ro0SJduHDBifYc12Vupvh1p0+f1uXLlxUfH++3Pj4+XkeOHHGoq/aRkZGhoqIiDRkyRCdOnNDSpUs1ZswYHTp0SJGRkU63125qa2slqcUxvLKtMxs/frwmTZqklJQUVVZWavHixcrLy9OePXsUGhrqdHu2NTU1ad68eRo9erSGDRsm6aux6969u/r06eNX29nGrqVjk6SpU6cqOTlZSUlJOnjwoJ544glVVFTorbfecrBbZ3TJAOnK8vLyfD+PGDFCGRkZSk5O1ptvvqmZM2c62BnaYsqUKb6fhw8frhEjRmjQoEEqLS3VuHHjHOysbfLz83Xo0KFOex3uWq52bA8//LDv5+HDhysxMVHjxo1TZWWlBg0aFOg2HdUlT2HFxMQoNDS02ac+6urqlJCQ4FBXHaNPnz4aPHiwjh075nQr7erKOP0zjKEkpaamKiYmplONY0FBgTZv3qwdO3b4fZVCQkKCLl26pLNnz/rVd6axu9qxtSQjI0OSOtXYtZcuGSDdu3dXenq6SkpKfOuamppUUlKiUaNGOdhZ+zt//rwqKyuVmJjodCvtKiUlRQkJCX5j6PV6tW/fvi43hpL02Wef6cyZM51iHC3LUkFBgYqLi/Xee+8pJSXFb3t6erq6devmN3YVFRWqrq4O+rFr7dhaUl5eLkmdYuzandNX8TvK66+/boWHh1tFRUXW3//+d+vhhx+2+vTpY9XW1jrd2nX56U9/apWWllpVVVXW+++/b2VnZ1sxMTHWyZMnnW6tzc6dO2cdOHDAOnDggCXJ+vWvf20dOHDA+vTTTy3Lsqxf/OIXVp8+faxNmzZZBw8etO655x4rJSXF+uKLLxzuvHXXOrZz585Zjz32mLVnzx6rqqrK2r59u/Xtb3/buummm6yLFy863Xqr5syZY7ndbqu0tNQ6ceKEb7lw4YKvZvbs2daAAQOs9957z9q/f781atQoa9SoUQ52bU9rx3bs2DHr2Weftfbv329VVVVZmzZtslJTU63MzEyHO3dGlw0Qy7Ks3/72t9aAAQOs7t27WyNHjrT27t3rdEvX7b777rMSExOt7t27W9/61res++67zzp27JjTbRnZsWOHJanZMn36dMuyvvoo71NPPWXFx8db4eHh1rhx46yKigpnm7bpWsd24cIFKycnx4qNjbW6detmJScnWw899FCn+eWmpeOSZK1du9ZX88UXX1iPPPKI1bdvX6tnz57Wvffea504ccK5pm1q7diqq6utzMxMKzo62goPD7duvPFG6/HHH7c8Ho+zjTuE27kDAIx0yWsgAICOR4AAAIwQIAAAIwQIAMAIAQIAMEKAAACMECAAACMECADACAECADBCgAAAjBAgAAAjBAgAwAgBAgAwQoAAAIwQIAAAIwQIAMAIAQIAMEKAAACMECAAACMECADACAECADBCgAAAjPw/CvdvI2K2J4cAAAAASUVORK5CYII=;clipPath=inset(11.67% 10.33% 11.67% 12.67%);" parent="1" vertex="1">
          <mxGeometry x="135" y="130" width="30" height="29.87" as="geometry" />
        </mxCell>
        <mxCell id="Pd571a1XGvd4QOsNYKeU-32" value="4" style="text;html=1;strokeColor=none;fillColor=none;align=center;verticalAlign=middle;whiteSpace=wrap;rounded=0;" parent="1" vertex="1">
          <mxGeometry x="145" y="387.5" width="10" height="10" as="geometry" />
        </mxCell>
        <mxCell id="Pd571a1XGvd4QOsNYKeU-34" style="edgeStyle=orthogonalEdgeStyle;rounded=0;orthogonalLoop=1;jettySize=auto;html=1;entryX=0.5;entryY=0;entryDx=0;entryDy=0;" parent="1" source="Pd571a1XGvd4QOsNYKeU-35" target="Pd571a1XGvd4QOsNYKeU-37" edge="1">
          <mxGeometry relative="1" as="geometry" />
        </mxCell>
        <mxCell id="Pd571a1XGvd4QOsNYKeU-35" value="Layer0" style="rounded=1;whiteSpace=wrap;html=1;" parent="1" vertex="1">
          <mxGeometry x="326" y="170" width="60" height="30" as="geometry" />
        </mxCell>
        <mxCell id="Pd571a1XGvd4QOsNYKeU-36" style="edgeStyle=orthogonalEdgeStyle;rounded=0;orthogonalLoop=1;jettySize=auto;html=1;entryX=0.5;entryY=0;entryDx=0;entryDy=0;" parent="1" source="Pd571a1XGvd4QOsNYKeU-37" target="Pd571a1XGvd4QOsNYKeU-39" edge="1">
          <mxGeometry relative="1" as="geometry" />
        </mxCell>
        <mxCell id="Pd571a1XGvd4QOsNYKeU-37" value="Layer1" style="rounded=1;whiteSpace=wrap;html=1;" parent="1" vertex="1">
          <mxGeometry x="326" y="220" width="60" height="30" as="geometry" />
        </mxCell>
        <mxCell id="Pd571a1XGvd4QOsNYKeU-38" style="edgeStyle=orthogonalEdgeStyle;rounded=0;orthogonalLoop=1;jettySize=auto;html=1;entryX=0.5;entryY=0;entryDx=0;entryDy=0;" parent="1" source="Pd571a1XGvd4QOsNYKeU-39" target="Pd571a1XGvd4QOsNYKeU-41" edge="1">
          <mxGeometry relative="1" as="geometry" />
        </mxCell>
        <mxCell id="Pd571a1XGvd4QOsNYKeU-39" value="Layer2" style="rounded=1;whiteSpace=wrap;html=1;" parent="1" vertex="1">
          <mxGeometry x="326" y="270" width="60" height="30" as="geometry" />
        </mxCell>
        <mxCell id="Pd571a1XGvd4QOsNYKeU-40" style="edgeStyle=orthogonalEdgeStyle;rounded=0;orthogonalLoop=1;jettySize=auto;html=1;" parent="1" source="Pd571a1XGvd4QOsNYKeU-41" target="Pd571a1XGvd4QOsNYKeU-44" edge="1">
          <mxGeometry relative="1" as="geometry" />
        </mxCell>
        <mxCell id="Pd571a1XGvd4QOsNYKeU-41" value="Layer3" style="rounded=1;whiteSpace=wrap;html=1;" parent="1" vertex="1">
          <mxGeometry x="326" y="320" width="60" height="30" as="geometry" />
        </mxCell>
        <mxCell id="Pd571a1XGvd4QOsNYKeU-42" style="edgeStyle=orthogonalEdgeStyle;rounded=0;orthogonalLoop=1;jettySize=auto;html=1;entryX=0.5;entryY=0;entryDx=0;entryDy=0;" parent="1" source="Pd571a1XGvd4QOsNYKeU-43" target="Pd571a1XGvd4QOsNYKeU-35" edge="1">
          <mxGeometry relative="1" as="geometry" />
        </mxCell>
        <mxCell id="Pd571a1XGvd4QOsNYKeU-43" value="" style="shape=image;verticalLabelPosition=bottom;labelBackgroundColor=default;verticalAlign=top;aspect=fixed;imageAspect=0;image=data:image/png,iVBORw0KGgoAAAANSUhEUgAAAZAAAAGQCAYAAACAvzbMAAAAOXRFWHRTb2Z0d2FyZQBNYXRwbG90bGliIHZlcnNpb24zLjcuMSwgaHR0cHM6Ly9tYXRwbG90bGliLm9yZy/bCgiHAAAACXBIWXMAAA9hAAAPYQGoP6dpAAAkPklEQVR4nO3df3BU9b3/8dcmgYQfyULI7wohQUEvP+I0lZRBYigxIVIrwu0VwVvwUgVMqEAVL1RFlGlaKi3SItppS1oFf3DHwMi1CEQCFwW8RCKFXjKQRhMHEn6M7EKQEMn5/uGXHdcEcvIh2bNJn4+ZM5M9571n38cP7iufczZnXZZlWQIAoI1CnG4AANA5ESAAACMECADACAECADBCgAAAjBAgAAAjBAgAwAgBAgAwQoAAAIwQIAAAIwQIAMAIAQIAMEKAAACMECAAACMECADACAECADBCgAAAjBAgAAAjBAgAwAgBAgAwQoAAAIwQIAAAIwQIAMAIAQIAMEKAAACMECDodLKysjRjxgyn27Bl4MCBfr2WlpbK5XKptLS03V7D5XLpmWeeabf9AXYRIPBTVVWlgoICDR48WD179lTPnj31L//yL8rPz9fBgwclffUG7nK5Wl3svKlVVlYqIiJCLpdL+/fvb9djKSoq8usnIiJCgwcPVkFBgerq6tr1tTraO++8E/Qh0ZFjieAU5nQDCB6bN2/Wfffdp7CwME2bNk1paWkKCQnRkSNH9NZbb2nNmjWqqqrSz372M/34xz/2Pe9///d/tWrVKi1evFi33HKLb/2IESNafc358+crLCxMDQ0NHXJMkvTss88qJSVFFy9e1O7du7VmzRq98847OnTokHr27Nlhr9uSzMxMffHFF+revXubnvfOO+9o9erVLYbIF198obAw5/9XDsRYIrg4/68OQaGyslJTpkxRcnKySkpKlJiY6Lf9l7/8pV588UWFhITozjvv9NsWERGhVatW6c4771RWVpbt13z33Xf17rvvauHChVq2bFl7HEaL8vLy9J3vfEeS9OMf/1j9+vXTr3/9a23atEn3339/i8+pr69Xr1692r2XkJAQRUREtOs+23t/JgI1lggunMKCJGn58uWqr6/X2rVrm4WHJIWFheknP/mJ+vfvb3ufHo9HR44ckcfjabatsbFRjz76qB599FENGjTounpvq+9973uSvjpdJ0kzZsxQ7969VVlZqbvuukuRkZGaNm2aJKmpqUkrV67U0KFDFRERofj4eM2aNUuff/653z4ty9KyZct0ww03qGfPnho7dqwOHz7c7LWvdg1k3759uuuuu9S3b1/16tVLI0aM0AsvvODrb/Xq1ZLkd0ruipZOFx44cEB5eXmKiopS7969NW7cOO3du9ev5sopvvfff18LFixQbGysevXqpXvvvVenTp3yqw3WsYSzCBBI+ur01Y033qiMjIx222dxcbFuueUWFRcXN9u2cuVKff7553ryySfb7fXsqqyslCT169fPt+7LL79Ubm6u4uLi9Pzzz2vy5MmSpFmzZunxxx/X6NGj9cILL+jBBx/UunXrlJubq8bGRt/zn376aT311FNKS0vTr371K6WmpionJ0f19fWt9rNt2zZlZmbq73//ux599FGtWLFCY8eO1ebNm309XJn1vfLKK77lag4fPqwxY8bo448/1sKFC/XUU0+pqqpKWVlZ2rdvX7P6uXPn6uOPP9aSJUs0Z84cvf322yooKPCrCdaxhLM4hQV5vV4dP35cEydObLbt7Nmz+vLLL32Pe/XqpR49elzX69XW1uq5557T888/r6ioqOvalx0ej0enT5/WxYsX9f777+vZZ59Vjx499P3vf99X09DQoB/+8IcqLCz0rdu9e7f+8Ic/aN26dZo6dapv/dixYzV+/Hht2LBBU6dO1alTp7R8+XJNmDBBb7/9tm928LOf/Uw///nPr9nb5cuXNWvWLCUmJqq8vFx9+vTxbbMsS5I0atQoDR48WNu2bdMDDzzQ6vE++eSTamxs1O7du5WamipJ+tGPfqQhQ4Zo4cKF2rlzp199v379tHXrVl/fTU1NWrVqlTwej9xu9zVfK9BjieDCDATyer2SpN69ezfblpWVpdjYWN9y5VSKHTNmzJBlWc0+cvvEE08oNTXV70J8R8rOzlZsbKz69++vKVOmqHfv3iouLta3vvUtv7o5c+b4Pd6wYYPcbrfuvPNOnT592rekp6erd+/e2rFjhyRp+/btunTpkubOnet3amnevHmt9nbgwAFVVVVp3rx5fuEhyW9fdl2+fFlbt27VxIkTfeEhSYmJiZo6dap2797tG+8rHn74Yb/XGjNmjC5fvqxPP/3Uty5YxhLBhRkIFBkZKUk6f/58s20vv/yyzp07p7q6Olu//bZm7969euWVV1RSUqKQkMD8/rJ69WoNHjxYYWFhio+P15AhQ5q9dlhYmG644Qa/dUePHpXH41FcXFyL+z158qQk+d5ob7rpJr/tsbGx6tu37zV7u3I6bdiwYfYP6BpOnTqlCxcuaMiQIc223XLLLWpqalJNTY2GDh3qWz9gwAC/uis9f/M6zzc5MZYILgQI5Ha7lZiYqEOHDjXbduWayCeffNIur7Vw4UKNGTNGKSkpvn2ePn1aknTixAlVV1c3e0O7XiNHjvR9CutqwsPDm70JNjU1KS4uTuvWrWvxObGxse3Wo5NCQ0NbXH/lFNrVODGWCC4ECCRJEyZM0B/+8Ad9+OGHGjlyZIe9TnV1tT799FOlpKQ02/aDH/xAbrdbZ8+e7bDXb4tBgwZp+/btGj169DWv+yQnJ0v6asby9dNGp06davW3+CufWjp06JCys7OvWmf3dFZsbKx69uypioqKZtuOHDmikJCQNn2S7lo601iiYzDvhKSvfpvs2bOn/uM//qPFv9Ju7bfRlrT00c/f//73Ki4u9lvmzp0rSXr++eev+tu+E/7t3/5Nly9f1nPPPdds25dfful7c8zOzla3bt3029/+1u+/08qVK1t9jW9/+9tKSUnRypUrm73Zfn1fV/4mpbU35NDQUOXk5GjTpk1+s8a6ujqtX79et99+u9HF7s4+lugYzEAg6avz9+vXr9f999+vIUOG+P4S3bIsVVVVaf369QoJCWl2neBaiouL9eCDD2rt2rW+i685OTnN6q68Kd5xxx2tnmoKpDvuuEOzZs1SYWGhysvLlZOTo27duuno0aPasGGDXnjhBf3rv/6rYmNj9dhjj6mwsFDf//73ddddd+nAgQP661//qpiYmGu+RkhIiNasWaO7775bt956qx588EElJibqyJEjOnz4sN59911JUnp6uiTpJz/5iXJzcxUaGqopU6a0uM9ly5Zp27Ztuv322/XII48oLCxML7/8shoaGrR8+XKj/xadfSzRMQgQ+Nxzzz3629/+phUrVmjr1q3605/+JJfLpeTkZE2YMEGzZ89WWlqa020G1EsvvaT09HS9/PLLWrx4scLCwjRw4EA98MADGj16tK9u2bJlioiI0EsvvaQdO3YoIyNDW7du1YQJE1p9jdzcXO3YsUNLly7VihUr1NTUpEGDBumhhx7y1UyaNElz587V66+/rldffVWWZV01QIYOHar/+Z//0aJFi1RYWKimpiZlZGTo1Vdfbde/8wFclsm5CcBBWVlZGjhwoIqKipxuBfinxjUQAIARAgQAYIQAAQAY4RoIAMAIMxAAgBECBABgpMv8HUhTU5OOHz+uyMhIo7uYAkCwsCxL586dU1JSUlDfqLLLBMjx48fb7R4/ABAMampq2nT3h0ALqmhbvXq1Bg4cqIiICGVkZOjDDz+0/dwrtyQHgK4i2N/XgiZA3njjDS1YsEBLlizRRx99pLS0NOXm5vq+c6E1nLYC0NUE+/ta0HyMNyMjQ7fddpt+97vfSfrqmkb//v01d+5c/ed//merz/d6va1+/SYAdCYejyeovyo4KGYgly5dUllZmd/3IYSEhCg7O1t79uxxsDMAwNUExUX006dP6/Lly4qPj/dbHx8fryNHjrT4nIaGBjU0NPgef/N7ngEAHSsoZiAmCgsL5Xa7fQufwAKAwAqKAImJiVFoaGizb8Krq6tTQkJCi89ZtGiRPB6Pb6mpqQlEqwCA/y8oAqR79+5KT09XSUmJb11TU5NKSko0atSoFp8THh6uqKgovwUAEDhBcQ1EkhYsWKDp06frO9/5jkaOHKmVK1eqvr5eDz74oNOtAQBaEDQBct999+nUqVN6+umnVVtbq1tvvVVbtmxpdmEdABAcgubvQK4XfwcCoKvh70AAAF0SAQIAMEKAAACMECAAACMECADACAECADBCgAAAjBAgAAAjBAgAwAgBAgAwQoAAAIwQIAAAIwQIAMAIAQIAMEKAAACMECAAACMECADACAECADBCgAAAjBAgAAAjBAgAwAgBAgAwQoAAAIwQIAAAIwQIAMAIAQIAMEKAAACMECAAACMECADACAECADBCgAAAjBAgAAAjBAgAwAgBAgAwQoAAAIwQIAAAIwQIAMAIAQIAMEKAAACMECAAACMECADACAECADBCgAAAjIQ53QC6pri4ONu1b775pu3aDz74wHbt73//e9u1n3zyie1atJ3b7bZdm5mZabt2y5YttmsbGxtt18KeoJmBPPPMM3K5XH7LzTff7HRbAICrCKoZyNChQ7V9+3bf47CwoGoPAPA1QfUOHRYWpoSEBKfbAADYEDSnsCTp6NGjSkpKUmpqqqZNm6bq6mqnWwIAXEXQzEAyMjJUVFSkIUOG6MSJE1q6dKnGjBmjQ4cOKTIysll9Q0ODGhoafI+9Xm8g2wWAf3pBEyB5eXm+n0eMGKGMjAwlJyfrzTff1MyZM5vVFxYWaunSpYFsEQDwNUF1Cuvr+vTpo8GDB+vYsWMtbl+0aJE8Ho9vqampCXCHAPDPLWgD5Pz586qsrFRiYmKL28PDwxUVFeW3AAACJ2gC5LHHHtPOnTv1ySef6IMPPtC9996r0NBQ3X///U63BgBoQdBcA/nss890//3368yZM4qNjdXtt9+uvXv3KjY21unWAAAtCJoAef31151uAa3o27ev7drDhw/brm3LbS7q6ups13J7ko7VlnErKyuzXduWXxrT09Nt117teirMBc0pLABA50KAAACMECAAACMECADACAECADBCgAAAjBAgAAAjBAgAwAgBAgAwQoAAAIwEza1M4IyYmBjbtW+88Ybt2ujoaNu1L774ou3auXPn2q5Fx3ryySdt16akpNiunTVrlu1abk/iLGYgAAAjBAgAwAgBAgAwQoAAAIwQIAAAIwQIAMAIAQIAMEKAAACMECAAACMECADAiMuyLMvpJtqD1+uV2+12uo1OJycnx3btX//61w7pISEhwXbtqVOnOqQHfGXo0KG2a//2t7/Zri0uLrZdO2PGDNu1586ds13bGXk8HkVFRTndxlUxAwEAGCFAAABGCBAAgBECBABghAABABghQAAARggQAIARAgQAYIQAAQAYIUAAAEbCnG4A7S8uLs527eTJkzukh5kzZ9qu5fYkHasttyfZvn17h/TQlluZdPXbk3QlzEAAAEYIEACAEQIEAGCEAAEAGCFAAABGCBAAgBECBABghAABABghQAAARggQAIARbmXSBa1YscJ27QMPPGC7tqyszHbthg0bbNeiY40ZM8Z2bXx8vO3aoqIi27Wvvvqq7Vp0HgGZgezatUt33323kpKS5HK5tHHjRr/tlmXp6aefVmJionr06KHs7GwdPXo0EK0BAAwFJEDq6+uVlpam1atXt7h9+fLlWrVqlV566SXt27dPvXr1Um5uri5evBiI9gAABgJyCisvL095eXktbrMsSytXrtSTTz6pe+65R5L0l7/8RfHx8dq4caOmTJkSiBYBAG3k+EX0qqoq1dbWKjs727fO7XYrIyNDe/bscbAzAMC1OH4Rvba2VlLzi3fx8fG+bS1paGhQQ0OD77HX6+2YBgEALXJ8BmKqsLBQbrfbt/Tv39/plgDgn4rjAZKQkCBJqqur81tfV1fn29aSRYsWyePx+JaampoO7RMA4M/xAElJSVFCQoJKSkp867xer/bt26dRo0Zd9Xnh4eGKioryWwAAgROQayDnz5/XsWPHfI+rqqpUXl6u6OhoDRgwQPPmzdOyZct00003KSUlRU899ZSSkpI0ceLEQLQHADAQkADZv3+/xo4d63u8YMECSdL06dNVVFSkhQsXqr6+Xg8//LDOnj2r22+/XVu2bFFEREQg2gMAGHBZlmU53UR78Hq9crvdTrcRFP7yl7/Yrp02bZrt2v/+7/+2XTt58mTbtY2NjbZru7IePXrYrl28eLHt2kceecR2bZ8+fWzXhoaG2q6FGY/HE9Sn5x2/BgIA6JwIEACAEQIEAGCEAAEAGCFAAABGCBAAgBECBABghAABABghQAAARggQAIARx79QCp3HhAkTbNdu3brVdu3Zs2dt165Zs8Z2bTC44447bNdmZWXZrv3ud79r0E3r/uu//qtD9ouuiRkIAMAIAQIAMEKAAACMECAAACMECADACAECADBCgAAAjBAgAAAjBAgAwAgBAgAw4rIsy3K6ifbg9XrldrudbiMopKen267duHGj7dqkpCSDblrncrls13a2f67BcGz/+Mc/bNeOHz/edm1lZaVJO2gDj8ejqKgop9u4KmYgAAAjBAgAwAgBAgAwQoAAAIwQIAAAIwQIAMAIAQIAMEKAAACMECAAACMECADASJjTDaD9lZWV2a4dMWKE7dpbb73Vdm1bbonx+OOP2649deqU7do///nPtms7yiuvvGK79uOPP+6QHj744APbtdyeBG3BDAQAYIQAAQAYIUAAAEYIEACAEQIEAGCEAAEAGCFAAABGCBAAgBECBABghAABABhxWZZlOd1Ee/B6vXK73U63AfhJTU21XXvs2DHbteXl5bZrc3Nzbde25VYx6Hgej0dRUVFOt3FVAZmB7Nq1S3fffbeSkpLkcrm0ceNGv+0zZsyQy+XyW9pyLyUAQOAFJEDq6+uVlpam1atXX7Vm/PjxOnHihG957bXXAtEaAMBQQO7Gm5eXp7y8vGvWhIeHKyEhIRDtAADaQdBcRC8tLVVcXJyGDBmiOXPm6MyZM063BAC4hqD4PpDx48dr0qRJSklJUWVlpRYvXqy8vDzt2bNHoaGhLT6noaFBDQ0NvsderzdQ7QIAFCQBMmXKFN/Pw4cP14gRIzRo0CCVlpZq3LhxLT6nsLBQS5cuDVSLAIBvCJpTWF+XmpqqmJiYa36scdGiRfJ4PL6lpqYmgB0CAIJiBvJNn332mc6cOaPExMSr1oSHhys8PDyAXQEAvi4gAXL+/Hm/2URVVZXKy8sVHR2t6OhoLV26VJMnT1ZCQoIqKyu1cOFC3XjjjW36AygAQGAFJED279+vsWPH+h4vWLBAkjR9+nStWbNGBw8e1J///GedPXtWSUlJysnJ0XPPPccMAwCCGLcyATpQUVGR7dp///d/t13bljs1bNu2zXYtggu3MgEAdEkECADACAECADBCgAAAjBAgAAAjBAgAwAgBAgAwQoAAAIwQIAAAIwQIAMBIUN6NFwhmP/zhD23X/uhHP7Jde+7cOdu1fGMnggEzEACAEQIEAGCEAAEAGCFAAABGCBAAgBECBABghAABABghQAAARggQAIARAgQAYIRbmQBtlJeX1yH73bx5s+3ajz76qEN6ANqCGQgAwAgBAgAwQoAAAIwQIAAAIwQIAMAIAQIAMEKAAACMECAAACMECADACAECADDCrUyANmrLrUzq6+tt165YscKkHcAxzEAAAEYIEACAEQIEAGCEAAEAGCFAAABGCBAAgBECBABghAABABghQAAARggQAIARbmUCSJo9e7bt2vj4eNu1J0+etF370Ucf2a4FgkFAZiCFhYW67bbbFBkZqbi4OE2cOFEVFRV+NRcvXlR+fr769eun3r17a/LkyaqrqwtEewAAAwEJkJ07dyo/P1979+7Vtm3b1NjYqJycHL8bzc2fP19vv/22NmzYoJ07d+r48eOaNGlSINoDABgIyCmsLVu2+D0uKipSXFycysrKlJmZKY/Hoz/+8Y9av369vve970mS1q5dq1tuuUV79+7Vd7/73UC0CQBoA0cuons8HklSdHS0JKmsrEyNjY3Kzs721dx8880aMGCA9uzZ40SLAIBWBPwielNTk+bNm6fRo0dr2LBhkqTa2lp1795dffr08auNj49XbW1ti/tpaGhQQ0OD77HX6+2wngEAzQV8BpKfn69Dhw7p9ddfv679FBYWyu12+5b+/fu3U4cAADsCGiAFBQXavHmzduzYoRtuuMG3PiEhQZcuXdLZs2f96uvq6pSQkNDivhYtWiSPx+NbampqOrJ1AMA3BCRALMtSQUGBiouL9d577yklJcVve3p6urp166aSkhLfuoqKClVXV2vUqFEt7jM8PFxRUVF+CwAgcAJyDSQ/P1/r16/Xpk2bFBkZ6buu4Xa71aNHD7ndbs2cOVMLFixQdHS0oqKiNHfuXI0aNYpPYAFAkApIgKxZs0aSlJWV5bd+7dq1mjFjhiTpN7/5jUJCQjR58mQ1NDQoNzdXL774YiDaAwAYcFmWZTndRHvwer1yu91Ot4FOqry83Hbt8OHDbdcWFRXZrp05c6bt2sjISNu1ffv2tV1bXV1tuxYdz+PxBPXpeW6mCAAwQoAAAIwQIAAAIwQIAMAIAQIAMEKAAACMECAAACMECADACAECADBCgAAAjAT8C6WAfyaXL1+2XTtt2jTbtfPnz7dde/jwYdu106dPt10LMAMBABghQAAARggQAIARAgQAYIQAAQAYIUAAAEYIEACAEQIEAGCEAAEAGCFAAABGXJZlWU430R68Xq/cbrfTbaCTKi8vt107fPhw27Uul8t2bVv+V/zjH/9ou/a5556zXVtTU2O7Fh3P4/EoKirK6TauihkIAMAIAQIAMEKAAACMECAAACMECADACAECADBCgAAAjBAgAAAjBAgAwAgBAgAwEuZ0A0AwKCgosF377LPP2q7dtWuX7do1a9bYrv38889t1166dMl2LdAWzEAAAEYIEACAEQIEAGCEAAEAGCFAAABGCBAAgBECBABghAABABghQAAARggQAIARl2VZltNNtAev1yu32+10GwDQbjwej6Kiopxu46oCMgMpLCzUbbfdpsjISMXFxWnixImqqKjwq8nKypLL5fJbZs+eHYj2AAAGAhIgO3fuVH5+vvbu3att27apsbFROTk5qq+v96t76KGHdOLECd+yfPnyQLQHADAQkLvxbtmyxe9xUVGR4uLiVFZWpszMTN/6nj17KiEhIRAtAQCukyMX0T0ejyQpOjrab/26desUExOjYcOGadGiRbpw4YIT7QEAbAj494E0NTVp3rx5Gj16tIYNG+ZbP3XqVCUnJyspKUkHDx7UE088oYqKCr311lst7qehoUENDQ2+x16vt8N7BwB8jRVgs2fPtpKTk62amppr1pWUlFiSrGPHjrW4fcmSJZYkFhYWli67eDyejngbbjcB/RhvQUGBNm3apF27diklJeWatfX19erdu7e2bNmi3NzcZttbmoH079+/3XsGAKcE+8d4A3IKy7IszZ07V8XFxSotLW01PCSpvLxckpSYmNji9vDwcIWHh7dnmwCANghIgOTn52v9+vXatGmTIiMjVVtbK0lyu93q0aOHKisrtX79et11113q16+fDh48qPnz5yszM1MjRowIRIsAgLYKxHkyXeX83tq1ay3Lsqzq6morMzPTio6OtsLDw60bb7zRevzxx9t0/s/j8Th+vpKFhYWlPReugQQItzIB0NUE+zUQbqYIADBCgAAAjBAgAAAjBAgAwAgBAgAwQoAAAIwQIAAAIwQIAMAIAQIAMEKAAACMECAAACMECADACAECADBCgAAAjBAgAAAjBAgAwAgBAgAwQoAAAIwQIAAAIwQIAMBIlwkQy7KcbgEA2lWwv691mQA5d+6c0y0AQLsK9vc1lxXsEWdTU1OTjh8/rsjISLlcLt96r9er/v37q6amRlFRUQ522P44ts6JY+ucAnlslmXp3LlzSkpKUkhI8P6eH+Z0A+0lJCREN9xww1W3R0VFdbl/0FdwbJ0Tx9Y5BerY3G53h7/G9QreaAMABDUCBABgpMsHSHh4uJYsWaLw8HCnW2l3HFvnxLF1Tl352Ex1mYvoAIDA6vIzEABAxyBAAABGCBAAgBECBABgpEsHyOrVqzVw4EBFREQoIyNDH374odMtXbdnnnlGLpfLb7n55pudbsvIrl27dPfddyspKUkul0sbN270225Zlp5++mklJiaqR48eys7O1tGjR51pto1aO7YZM2Y0G8fx48c702wbFRYW6rbbblNkZKTi4uI0ceJEVVRU+NVcvHhR+fn56tevn3r37q3Jkyerrq7OoY7ts3NsWVlZzcZu9uzZDnXsrC4bIG+88YYWLFigJUuW6KOPPlJaWppyc3N18uRJp1u7bkOHDtWJEyd8y+7du51uyUh9fb3S0tK0evXqFrcvX75cq1at0ksvvaR9+/apV69eys3N1cWLFwPcadu1dmySNH78eL9xfO211wLYobmdO3cqPz9fe/fu1bZt29TY2KicnBzV19f7aubPn6+3335bGzZs0M6dO3X8+HFNmjTJwa7tsXNskvTQQw/5jd3y5csd6thhVhc1cuRIKz8/3/f48uXLVlJSklVYWOhgV9dvyZIlVlpamtNttDtJVnFxse9xU1OTlZCQYP3qV7/yrTt79qwVHh5uvfbaaw50aO6bx2ZZljV9+nTrnnvucaSf9nby5ElLkrVz507Lsr4ap27dulkbNmzw1fzf//2fJcnas2ePU20a+eaxWZZl3XHHHdajjz7qXFNBpEvOQC5duqSysjJlZ2f71oWEhCg7O1t79uxxsLP2cfToUSUlJSk1NVXTpk1TdXW10y21u6qqKtXW1vqNodvtVkZGRpcYQ0kqLS1VXFychgwZojlz5ujMmTNOt2TE4/FIkqKjoyVJZWVlamxs9Bu7m2++WQMGDOh0Y/fNY7ti3bp1iomJ0bBhw7Ro0SJduHDBifYc12Vupvh1p0+f1uXLlxUfH++3Pj4+XkeOHHGoq/aRkZGhoqIiDRkyRCdOnNDSpUs1ZswYHTp0SJGRkU63125qa2slqcUxvLKtMxs/frwmTZqklJQUVVZWavHixcrLy9OePXsUGhrqdHu2NTU1ad68eRo9erSGDRsm6aux6969u/r06eNX29nGrqVjk6SpU6cqOTlZSUlJOnjwoJ544glVVFTorbfecrBbZ3TJAOnK8vLyfD+PGDFCGRkZSk5O1ptvvqmZM2c62BnaYsqUKb6fhw8frhEjRmjQoEEqLS3VuHHjHOysbfLz83Xo0KFOex3uWq52bA8//LDv5+HDhysxMVHjxo1TZWWlBg0aFOg2HdUlT2HFxMQoNDS02ac+6urqlJCQ4FBXHaNPnz4aPHiwjh075nQr7erKOP0zjKEkpaamKiYmplONY0FBgTZv3qwdO3b4fZVCQkKCLl26pLNnz/rVd6axu9qxtSQjI0OSOtXYtZcuGSDdu3dXenq6SkpKfOuamppUUlKiUaNGOdhZ+zt//rwqKyuVmJjodCvtKiUlRQkJCX5j6PV6tW/fvi43hpL02Wef6cyZM51iHC3LUkFBgYqLi/Xee+8pJSXFb3t6erq6devmN3YVFRWqrq4O+rFr7dhaUl5eLkmdYuzandNX8TvK66+/boWHh1tFRUXW3//+d+vhhx+2+vTpY9XW1jrd2nX56U9/apWWllpVVVXW+++/b2VnZ1sxMTHWyZMnnW6tzc6dO2cdOHDAOnDggCXJ+vWvf20dOHDA+vTTTy3Lsqxf/OIXVp8+faxNmzZZBw8etO655x4rJSXF+uKLLxzuvHXXOrZz585Zjz32mLVnzx6rqqrK2r59u/Xtb3/buummm6yLFy863Xqr5syZY7ndbqu0tNQ6ceKEb7lw4YKvZvbs2daAAQOs9957z9q/f781atQoa9SoUQ52bU9rx3bs2DHr2Weftfbv329VVVVZmzZtslJTU63MzEyHO3dGlw0Qy7Ks3/72t9aAAQOs7t27WyNHjrT27t3rdEvX7b777rMSExOt7t27W9/61res++67zzp27JjTbRnZsWOHJanZMn36dMuyvvoo71NPPWXFx8db4eHh1rhx46yKigpnm7bpWsd24cIFKycnx4qNjbW6detmJScnWw899FCn+eWmpeOSZK1du9ZX88UXX1iPPPKI1bdvX6tnz57Wvffea504ccK5pm1q7diqq6utzMxMKzo62goPD7duvPFG6/HHH7c8Ho+zjTuE27kDAIx0yWsgAICOR4AAAIwQIAAAIwQIAMAIAQIAMEKAAACMECAAACMECADACAECADBCgAAAjBAgAAAjBAgAwAgBAgAwQoAAAIwQIAAAIwQIAMAIAQIAMEKAAACMECAAACMECADACAECADBCgAAAjPw/CvdvI2K2J4cAAAAASUVORK5CYII=;clipPath=inset(11.67% 10.33% 11.67% 12.67%);" parent="1" vertex="1">
          <mxGeometry x="341" y="120" width="30" height="29.87" as="geometry" />
        </mxCell>
        <mxCell id="Pd571a1XGvd4QOsNYKeU-44" value="4" style="text;html=1;strokeColor=none;fillColor=none;align=center;verticalAlign=middle;whiteSpace=wrap;rounded=0;" parent="1" vertex="1">
          <mxGeometry x="351" y="385" width="10" height="10" as="geometry" />
        </mxCell>
        <mxCell id="Pd571a1XGvd4QOsNYKeU-45" style="edgeStyle=orthogonalEdgeStyle;rounded=0;orthogonalLoop=1;jettySize=auto;html=1;entryX=0.5;entryY=0;entryDx=0;entryDy=0;" parent="1" source="Pd571a1XGvd4QOsNYKeU-46" target="Pd571a1XGvd4QOsNYKeU-48" edge="1">
          <mxGeometry relative="1" as="geometry" />
        </mxCell>
        <mxCell id="Pd571a1XGvd4QOsNYKeU-46" value="Layer0" style="rounded=1;whiteSpace=wrap;html=1;" parent="1" vertex="1">
          <mxGeometry x="542" y="167.5" width="60" height="30" as="geometry" />
        </mxCell>
        <mxCell id="Pd571a1XGvd4QOsNYKeU-47" style="edgeStyle=orthogonalEdgeStyle;rounded=0;orthogonalLoop=1;jettySize=auto;html=1;entryX=0.5;entryY=0;entryDx=0;entryDy=0;" parent="1" source="Pd571a1XGvd4QOsNYKeU-48" target="Pd571a1XGvd4QOsNYKeU-50" edge="1">
          <mxGeometry relative="1" as="geometry" />
        </mxCell>
        <mxCell id="Pd571a1XGvd4QOsNYKeU-48" value="Layer1" style="rounded=1;whiteSpace=wrap;html=1;" parent="1" vertex="1">
          <mxGeometry x="542" y="217.5" width="60" height="30" as="geometry" />
        </mxCell>
        <mxCell id="Pd571a1XGvd4QOsNYKeU-49" style="edgeStyle=orthogonalEdgeStyle;rounded=0;orthogonalLoop=1;jettySize=auto;html=1;entryX=0.5;entryY=0;entryDx=0;entryDy=0;" parent="1" source="Pd571a1XGvd4QOsNYKeU-50" target="Pd571a1XGvd4QOsNYKeU-52" edge="1">
          <mxGeometry relative="1" as="geometry" />
        </mxCell>
        <mxCell id="Pd571a1XGvd4QOsNYKeU-50" value="Layer2" style="rounded=1;whiteSpace=wrap;html=1;" parent="1" vertex="1">
          <mxGeometry x="542" y="267.5" width="60" height="30" as="geometry" />
        </mxCell>
        <mxCell id="Pd571a1XGvd4QOsNYKeU-51" style="edgeStyle=orthogonalEdgeStyle;rounded=0;orthogonalLoop=1;jettySize=auto;html=1;" parent="1" source="Pd571a1XGvd4QOsNYKeU-52" target="Pd571a1XGvd4QOsNYKeU-55" edge="1">
          <mxGeometry relative="1" as="geometry" />
        </mxCell>
        <mxCell id="Pd571a1XGvd4QOsNYKeU-52" value="Layer3" style="rounded=1;whiteSpace=wrap;html=1;" parent="1" vertex="1">
          <mxGeometry x="542" y="317.5" width="60" height="30" as="geometry" />
        </mxCell>
        <mxCell id="Pd571a1XGvd4QOsNYKeU-53" style="edgeStyle=orthogonalEdgeStyle;rounded=0;orthogonalLoop=1;jettySize=auto;html=1;entryX=0.5;entryY=0;entryDx=0;entryDy=0;" parent="1" source="Pd571a1XGvd4QOsNYKeU-54" target="Pd571a1XGvd4QOsNYKeU-46" edge="1">
          <mxGeometry relative="1" as="geometry" />
        </mxCell>
        <mxCell id="Pd571a1XGvd4QOsNYKeU-54" value="" style="shape=image;verticalLabelPosition=bottom;labelBackgroundColor=default;verticalAlign=top;aspect=fixed;imageAspect=0;image=data:image/png,iVBORw0KGgoAAAANSUhEUgAAAZAAAAGQCAYAAACAvzbMAAAAOXRFWHRTb2Z0d2FyZQBNYXRwbG90bGliIHZlcnNpb24zLjcuMSwgaHR0cHM6Ly9tYXRwbG90bGliLm9yZy/bCgiHAAAACXBIWXMAAA9hAAAPYQGoP6dpAAAkPklEQVR4nO3df3BU9b3/8dcmgYQfyULI7wohQUEvP+I0lZRBYigxIVIrwu0VwVvwUgVMqEAVL1RFlGlaKi3SItppS1oFf3DHwMi1CEQCFwW8RCKFXjKQRhMHEn6M7EKQEMn5/uGXHdcEcvIh2bNJn4+ZM5M9571n38cP7iufczZnXZZlWQIAoI1CnG4AANA5ESAAACMECADACAECADBCgAAAjBAgAAAjBAgAwAgBAgAwQoAAAIwQIAAAIwQIAMAIAQIAMEKAAACMECAAACMECADACAECADBCgAAAjBAgAAAjBAgAwAgBAgAwQoAAAIwQIAAAIwQIAMAIAQIAMEKAAACMECDodLKysjRjxgyn27Bl4MCBfr2WlpbK5XKptLS03V7D5XLpmWeeabf9AXYRIPBTVVWlgoICDR48WD179lTPnj31L//yL8rPz9fBgwclffUG7nK5Wl3svKlVVlYqIiJCLpdL+/fvb9djKSoq8usnIiJCgwcPVkFBgerq6tr1tTraO++8E/Qh0ZFjieAU5nQDCB6bN2/Wfffdp7CwME2bNk1paWkKCQnRkSNH9NZbb2nNmjWqqqrSz372M/34xz/2Pe9///d/tWrVKi1evFi33HKLb/2IESNafc358+crLCxMDQ0NHXJMkvTss88qJSVFFy9e1O7du7VmzRq98847OnTokHr27Nlhr9uSzMxMffHFF+revXubnvfOO+9o9erVLYbIF198obAw5/9XDsRYIrg4/68OQaGyslJTpkxRcnKySkpKlJiY6Lf9l7/8pV588UWFhITozjvv9NsWERGhVatW6c4771RWVpbt13z33Xf17rvvauHChVq2bFl7HEaL8vLy9J3vfEeS9OMf/1j9+vXTr3/9a23atEn3339/i8+pr69Xr1692r2XkJAQRUREtOs+23t/JgI1lggunMKCJGn58uWqr6/X2rVrm4WHJIWFheknP/mJ+vfvb3ufHo9HR44ckcfjabatsbFRjz76qB599FENGjTounpvq+9973uSvjpdJ0kzZsxQ7969VVlZqbvuukuRkZGaNm2aJKmpqUkrV67U0KFDFRERofj4eM2aNUuff/653z4ty9KyZct0ww03qGfPnho7dqwOHz7c7LWvdg1k3759uuuuu9S3b1/16tVLI0aM0AsvvODrb/Xq1ZLkd0ruipZOFx44cEB5eXmKiopS7969NW7cOO3du9ev5sopvvfff18LFixQbGysevXqpXvvvVenTp3yqw3WsYSzCBBI+ur01Y033qiMjIx222dxcbFuueUWFRcXN9u2cuVKff7553ryySfb7fXsqqyslCT169fPt+7LL79Ubm6u4uLi9Pzzz2vy5MmSpFmzZunxxx/X6NGj9cILL+jBBx/UunXrlJubq8bGRt/zn376aT311FNKS0vTr371K6WmpionJ0f19fWt9rNt2zZlZmbq73//ux599FGtWLFCY8eO1ebNm309XJn1vfLKK77lag4fPqwxY8bo448/1sKFC/XUU0+pqqpKWVlZ2rdvX7P6uXPn6uOPP9aSJUs0Z84cvf322yooKPCrCdaxhLM4hQV5vV4dP35cEydObLbt7Nmz+vLLL32Pe/XqpR49elzX69XW1uq5557T888/r6ioqOvalx0ej0enT5/WxYsX9f777+vZZ59Vjx499P3vf99X09DQoB/+8IcqLCz0rdu9e7f+8Ic/aN26dZo6dapv/dixYzV+/Hht2LBBU6dO1alTp7R8+XJNmDBBb7/9tm928LOf/Uw///nPr9nb5cuXNWvWLCUmJqq8vFx9+vTxbbMsS5I0atQoDR48WNu2bdMDDzzQ6vE++eSTamxs1O7du5WamipJ+tGPfqQhQ4Zo4cKF2rlzp199v379tHXrVl/fTU1NWrVqlTwej9xu9zVfK9BjieDCDATyer2SpN69ezfblpWVpdjYWN9y5VSKHTNmzJBlWc0+cvvEE08oNTXV70J8R8rOzlZsbKz69++vKVOmqHfv3iouLta3vvUtv7o5c+b4Pd6wYYPcbrfuvPNOnT592rekp6erd+/e2rFjhyRp+/btunTpkubOnet3amnevHmt9nbgwAFVVVVp3rx5fuEhyW9fdl2+fFlbt27VxIkTfeEhSYmJiZo6dap2797tG+8rHn74Yb/XGjNmjC5fvqxPP/3Uty5YxhLBhRkIFBkZKUk6f/58s20vv/yyzp07p7q6Olu//bZm7969euWVV1RSUqKQkMD8/rJ69WoNHjxYYWFhio+P15AhQ5q9dlhYmG644Qa/dUePHpXH41FcXFyL+z158qQk+d5ob7rpJr/tsbGx6tu37zV7u3I6bdiwYfYP6BpOnTqlCxcuaMiQIc223XLLLWpqalJNTY2GDh3qWz9gwAC/uis9f/M6zzc5MZYILgQI5Ha7lZiYqEOHDjXbduWayCeffNIur7Vw4UKNGTNGKSkpvn2ePn1aknTixAlVV1c3e0O7XiNHjvR9CutqwsPDm70JNjU1KS4uTuvWrWvxObGxse3Wo5NCQ0NbXH/lFNrVODGWCC4ECCRJEyZM0B/+8Ad9+OGHGjlyZIe9TnV1tT799FOlpKQ02/aDH/xAbrdbZ8+e7bDXb4tBgwZp+/btGj169DWv+yQnJ0v6asby9dNGp06davW3+CufWjp06JCys7OvWmf3dFZsbKx69uypioqKZtuOHDmikJCQNn2S7lo601iiYzDvhKSvfpvs2bOn/uM//qPFv9Ju7bfRlrT00c/f//73Ki4u9lvmzp0rSXr++eev+tu+E/7t3/5Nly9f1nPPPdds25dfful7c8zOzla3bt3029/+1u+/08qVK1t9jW9/+9tKSUnRypUrm73Zfn1fV/4mpbU35NDQUOXk5GjTpk1+s8a6ujqtX79et99+u9HF7s4+lugYzEAg6avz9+vXr9f999+vIUOG+P4S3bIsVVVVaf369QoJCWl2neBaiouL9eCDD2rt2rW+i685OTnN6q68Kd5xxx2tnmoKpDvuuEOzZs1SYWGhysvLlZOTo27duuno0aPasGGDXnjhBf3rv/6rYmNj9dhjj6mwsFDf//73ddddd+nAgQP661//qpiYmGu+RkhIiNasWaO7775bt956qx588EElJibqyJEjOnz4sN59911JUnp6uiTpJz/5iXJzcxUaGqopU6a0uM9ly5Zp27Ztuv322/XII48oLCxML7/8shoaGrR8+XKj/xadfSzRMQgQ+Nxzzz3629/+phUrVmjr1q3605/+JJfLpeTkZE2YMEGzZ89WWlqa020G1EsvvaT09HS9/PLLWrx4scLCwjRw4EA98MADGj16tK9u2bJlioiI0EsvvaQdO3YoIyNDW7du1YQJE1p9jdzcXO3YsUNLly7VihUr1NTUpEGDBumhhx7y1UyaNElz587V66+/rldffVWWZV01QIYOHar/+Z//0aJFi1RYWKimpiZlZGTo1Vdfbde/8wFclsm5CcBBWVlZGjhwoIqKipxuBfinxjUQAIARAgQAYIQAAQAY4RoIAMAIMxAAgBECBABgpMv8HUhTU5OOHz+uyMhIo7uYAkCwsCxL586dU1JSUlDfqLLLBMjx48fb7R4/ABAMampq2nT3h0ALqmhbvXq1Bg4cqIiICGVkZOjDDz+0/dwrtyQHgK4i2N/XgiZA3njjDS1YsEBLlizRRx99pLS0NOXm5vq+c6E1nLYC0NUE+/ta0HyMNyMjQ7fddpt+97vfSfrqmkb//v01d+5c/ed//merz/d6va1+/SYAdCYejyeovyo4KGYgly5dUllZmd/3IYSEhCg7O1t79uxxsDMAwNUExUX006dP6/Lly4qPj/dbHx8fryNHjrT4nIaGBjU0NPgef/N7ngEAHSsoZiAmCgsL5Xa7fQufwAKAwAqKAImJiVFoaGizb8Krq6tTQkJCi89ZtGiRPB6Pb6mpqQlEqwCA/y8oAqR79+5KT09XSUmJb11TU5NKSko0atSoFp8THh6uqKgovwUAEDhBcQ1EkhYsWKDp06frO9/5jkaOHKmVK1eqvr5eDz74oNOtAQBaEDQBct999+nUqVN6+umnVVtbq1tvvVVbtmxpdmEdABAcgubvQK4XfwcCoKvh70AAAF0SAQIAMEKAAACMECAAACMECADACAECADBCgAAAjBAgAAAjBAgAwAgBAgAwQoAAAIwQIAAAIwQIAMAIAQIAMEKAAACMECAAACMECADACAECADBCgAAAjBAgAAAjBAgAwAgBAgAwQoAAAIwQIAAAIwQIAMAIAQIAMEKAAACMECAAACMECADACAECADBCgAAAjBAgAAAjBAgAwAgBAgAwQoAAAIwQIAAAIwQIAMAIAQIAMEKAAACMECAAACMECADACAECADBCgAAAjIQ53QC6pri4ONu1b775pu3aDz74wHbt73//e9u1n3zyie1atJ3b7bZdm5mZabt2y5YttmsbGxtt18KeoJmBPPPMM3K5XH7LzTff7HRbAICrCKoZyNChQ7V9+3bf47CwoGoPAPA1QfUOHRYWpoSEBKfbAADYEDSnsCTp6NGjSkpKUmpqqqZNm6bq6mqnWwIAXEXQzEAyMjJUVFSkIUOG6MSJE1q6dKnGjBmjQ4cOKTIysll9Q0ODGhoafI+9Xm8g2wWAf3pBEyB5eXm+n0eMGKGMjAwlJyfrzTff1MyZM5vVFxYWaunSpYFsEQDwNUF1Cuvr+vTpo8GDB+vYsWMtbl+0aJE8Ho9vqampCXCHAPDPLWgD5Pz586qsrFRiYmKL28PDwxUVFeW3AAACJ2gC5LHHHtPOnTv1ySef6IMPPtC9996r0NBQ3X///U63BgBoQdBcA/nss890//3368yZM4qNjdXtt9+uvXv3KjY21unWAAAtCJoAef31151uAa3o27ev7drDhw/brm3LbS7q6ups13J7ko7VlnErKyuzXduWXxrT09Nt117teirMBc0pLABA50KAAACMECAAACMECADACAECADBCgAAAjBAgAAAjBAgAwAgBAgAwQoAAAIwEza1M4IyYmBjbtW+88Ybt2ujoaNu1L774ou3auXPn2q5Fx3ryySdt16akpNiunTVrlu1abk/iLGYgAAAjBAgAwAgBAgAwQoAAAIwQIAAAIwQIAMAIAQIAMEKAAACMECAAACMECADAiMuyLMvpJtqD1+uV2+12uo1OJycnx3btX//61w7pISEhwXbtqVOnOqQHfGXo0KG2a//2t7/Zri0uLrZdO2PGDNu1586ds13bGXk8HkVFRTndxlUxAwEAGCFAAABGCBAAgBECBABghAABABghQAAARggQAIARAgQAYIQAAQAYIUAAAEbCnG4A7S8uLs527eTJkzukh5kzZ9qu5fYkHasttyfZvn17h/TQlluZdPXbk3QlzEAAAEYIEACAEQIEAGCEAAEAGCFAAABGCBAAgBECBABghAABABghQAAARggQAIARbmXSBa1YscJ27QMPPGC7tqyszHbthg0bbNeiY40ZM8Z2bXx8vO3aoqIi27Wvvvqq7Vp0HgGZgezatUt33323kpKS5HK5tHHjRr/tlmXp6aefVmJionr06KHs7GwdPXo0EK0BAAwFJEDq6+uVlpam1atXt7h9+fLlWrVqlV566SXt27dPvXr1Um5uri5evBiI9gAABgJyCisvL095eXktbrMsSytXrtSTTz6pe+65R5L0l7/8RfHx8dq4caOmTJkSiBYBAG3k+EX0qqoq1dbWKjs727fO7XYrIyNDe/bscbAzAMC1OH4Rvba2VlLzi3fx8fG+bS1paGhQQ0OD77HX6+2YBgEALXJ8BmKqsLBQbrfbt/Tv39/plgDgn4rjAZKQkCBJqqur81tfV1fn29aSRYsWyePx+JaampoO7RMA4M/xAElJSVFCQoJKSkp867xer/bt26dRo0Zd9Xnh4eGKioryWwAAgROQayDnz5/XsWPHfI+rqqpUXl6u6OhoDRgwQPPmzdOyZct00003KSUlRU899ZSSkpI0ceLEQLQHADAQkADZv3+/xo4d63u8YMECSdL06dNVVFSkhQsXqr6+Xg8//LDOnj2r22+/XVu2bFFEREQg2gMAGHBZlmU53UR78Hq9crvdTrcRFP7yl7/Yrp02bZrt2v/+7/+2XTt58mTbtY2NjbZru7IePXrYrl28eLHt2kceecR2bZ8+fWzXhoaG2q6FGY/HE9Sn5x2/BgIA6JwIEACAEQIEAGCEAAEAGCFAAABGCBAAgBECBABghAABABghQAAARggQAIARx79QCp3HhAkTbNdu3brVdu3Zs2dt165Zs8Z2bTC44447bNdmZWXZrv3ud79r0E3r/uu//qtD9ouuiRkIAMAIAQIAMEKAAACMECAAACMECADACAECADBCgAAAjBAgAAAjBAgAwAgBAgAw4rIsy3K6ifbg9XrldrudbiMopKen267duHGj7dqkpCSDblrncrls13a2f67BcGz/+Mc/bNeOHz/edm1lZaVJO2gDj8ejqKgop9u4KmYgAAAjBAgAwAgBAgAwQoAAAIwQIAAAIwQIAMAIAQIAMEKAAACMECAAACMECADASJjTDaD9lZWV2a4dMWKE7dpbb73Vdm1bbonx+OOP2649deqU7do///nPtms7yiuvvGK79uOPP+6QHj744APbtdyeBG3BDAQAYIQAAQAYIUAAAEYIEACAEQIEAGCEAAEAGCFAAABGCBAAgBECBABghAABABhxWZZlOd1Ee/B6vXK73U63AfhJTU21XXvs2DHbteXl5bZrc3Nzbde25VYx6Hgej0dRUVFOt3FVAZmB7Nq1S3fffbeSkpLkcrm0ceNGv+0zZsyQy+XyW9pyLyUAQOAFJEDq6+uVlpam1atXX7Vm/PjxOnHihG957bXXAtEaAMBQQO7Gm5eXp7y8vGvWhIeHKyEhIRDtAADaQdBcRC8tLVVcXJyGDBmiOXPm6MyZM063BAC4hqD4PpDx48dr0qRJSklJUWVlpRYvXqy8vDzt2bNHoaGhLT6noaFBDQ0NvsderzdQ7QIAFCQBMmXKFN/Pw4cP14gRIzRo0CCVlpZq3LhxLT6nsLBQS5cuDVSLAIBvCJpTWF+XmpqqmJiYa36scdGiRfJ4PL6lpqYmgB0CAIJiBvJNn332mc6cOaPExMSr1oSHhys8PDyAXQEAvi4gAXL+/Hm/2URVVZXKy8sVHR2t6OhoLV26VJMnT1ZCQoIqKyu1cOFC3XjjjW36AygAQGAFJED279+vsWPH+h4vWLBAkjR9+nStWbNGBw8e1J///GedPXtWSUlJysnJ0XPPPccMAwCCGLcyATpQUVGR7dp///d/t13bljs1bNu2zXYtggu3MgEAdEkECADACAECADBCgAAAjBAgAAAjBAgAwAgBAgAwQoAAAIwQIAAAIwQIAMBIUN6NFwhmP/zhD23X/uhHP7Jde+7cOdu1fGMnggEzEACAEQIEAGCEAAEAGCFAAABGCBAAgBECBABghAABABghQAAARggQAIARAgQAYIRbmQBtlJeX1yH73bx5s+3ajz76qEN6ANqCGQgAwAgBAgAwQoAAAIwQIAAAIwQIAMAIAQIAMEKAAACMECAAACMECADACAECADDCrUyANmrLrUzq6+tt165YscKkHcAxzEAAAEYIEACAEQIEAGCEAAEAGCFAAABGCBAAgBECBABghAABABghQAAARggQAIARbmUCSJo9e7bt2vj4eNu1J0+etF370Ucf2a4FgkFAZiCFhYW67bbbFBkZqbi4OE2cOFEVFRV+NRcvXlR+fr769eun3r17a/LkyaqrqwtEewAAAwEJkJ07dyo/P1979+7Vtm3b1NjYqJycHL8bzc2fP19vv/22NmzYoJ07d+r48eOaNGlSINoDABgIyCmsLVu2+D0uKipSXFycysrKlJmZKY/Hoz/+8Y9av369vve970mS1q5dq1tuuUV79+7Vd7/73UC0CQBoA0cuons8HklSdHS0JKmsrEyNjY3Kzs721dx8880aMGCA9uzZ40SLAIBWBPwielNTk+bNm6fRo0dr2LBhkqTa2lp1795dffr08auNj49XbW1ti/tpaGhQQ0OD77HX6+2wngEAzQV8BpKfn69Dhw7p9ddfv679FBYWyu12+5b+/fu3U4cAADsCGiAFBQXavHmzduzYoRtuuMG3PiEhQZcuXdLZs2f96uvq6pSQkNDivhYtWiSPx+NbampqOrJ1AMA3BCRALMtSQUGBiouL9d577yklJcVve3p6urp166aSkhLfuoqKClVXV2vUqFEt7jM8PFxRUVF+CwAgcAJyDSQ/P1/r16/Xpk2bFBkZ6buu4Xa71aNHD7ndbs2cOVMLFixQdHS0oqKiNHfuXI0aNYpPYAFAkApIgKxZs0aSlJWV5bd+7dq1mjFjhiTpN7/5jUJCQjR58mQ1NDQoNzdXL774YiDaAwAYcFmWZTndRHvwer1yu91Ot4FOqry83Hbt8OHDbdcWFRXZrp05c6bt2sjISNu1ffv2tV1bXV1tuxYdz+PxBPXpeW6mCAAwQoAAAIwQIAAAIwQIAMAIAQIAMEKAAACMECAAACMECADACAECADBCgAAAjAT8C6WAfyaXL1+2XTtt2jTbtfPnz7dde/jwYdu106dPt10LMAMBABghQAAARggQAIARAgQAYIQAAQAYIUAAAEYIEACAEQIEAGCEAAEAGCFAAABGXJZlWU430R68Xq/cbrfTbaCTKi8vt107fPhw27Uul8t2bVv+V/zjH/9ou/a5556zXVtTU2O7Fh3P4/EoKirK6TauihkIAMAIAQIAMEKAAACMECAAACMECADACAECADBCgAAAjBAgAAAjBAgAwAgBAgAwEuZ0A0AwKCgosF377LPP2q7dtWuX7do1a9bYrv38889t1166dMl2LdAWzEAAAEYIEACAEQIEAGCEAAEAGCFAAABGCBAAgBECBABghAABABghQAAARggQAIARl2VZltNNtAev1yu32+10GwDQbjwej6Kiopxu46oCMgMpLCzUbbfdpsjISMXFxWnixImqqKjwq8nKypLL5fJbZs+eHYj2AAAGAhIgO3fuVH5+vvbu3att27apsbFROTk5qq+v96t76KGHdOLECd+yfPnyQLQHADAQkLvxbtmyxe9xUVGR4uLiVFZWpszMTN/6nj17KiEhIRAtAQCukyMX0T0ejyQpOjrab/26desUExOjYcOGadGiRbpw4YIT7QEAbAj494E0NTVp3rx5Gj16tIYNG+ZbP3XqVCUnJyspKUkHDx7UE088oYqKCr311lst7qehoUENDQ2+x16vt8N7BwB8jRVgs2fPtpKTk62amppr1pWUlFiSrGPHjrW4fcmSJZYkFhYWli67eDyejngbbjcB/RhvQUGBNm3apF27diklJeWatfX19erdu7e2bNmi3NzcZttbmoH079+/3XsGAKcE+8d4A3IKy7IszZ07V8XFxSotLW01PCSpvLxckpSYmNji9vDwcIWHh7dnmwCANghIgOTn52v9+vXatGmTIiMjVVtbK0lyu93q0aOHKisrtX79et11113q16+fDh48qPnz5yszM1MjRowIRIsAgLYKxHkyXeX83tq1ay3Lsqzq6morMzPTio6OtsLDw60bb7zRevzxx9t0/s/j8Th+vpKFhYWlPReugQQItzIB0NUE+zUQbqYIADBCgAAAjBAgAAAjBAgAwAgBAgAwQoAAAIwQIAAAIwQIAMAIAQIAMEKAAACMECAAACMECADACAECADBCgAAAjBAgAAAjBAgAwAgBAgAwQoAAAIwQIAAAIwQIAMBIlwkQy7KcbgEA2lWwv691mQA5d+6c0y0AQLsK9vc1lxXsEWdTU1OTjh8/rsjISLlcLt96r9er/v37q6amRlFRUQ522P44ts6JY+ucAnlslmXp3LlzSkpKUkhI8P6eH+Z0A+0lJCREN9xww1W3R0VFdbl/0FdwbJ0Tx9Y5BerY3G53h7/G9QreaAMABDUCBABgpMsHSHh4uJYsWaLw8HCnW2l3HFvnxLF1Tl352Ex1mYvoAIDA6vIzEABAxyBAAABGCBAAgBECBABgpEsHyOrVqzVw4EBFREQoIyNDH374odMtXbdnnnlGLpfLb7n55pudbsvIrl27dPfddyspKUkul0sbN270225Zlp5++mklJiaqR48eys7O1tGjR51pto1aO7YZM2Y0G8fx48c702wbFRYW6rbbblNkZKTi4uI0ceJEVVRU+NVcvHhR+fn56tevn3r37q3Jkyerrq7OoY7ts3NsWVlZzcZu9uzZDnXsrC4bIG+88YYWLFigJUuW6KOPPlJaWppyc3N18uRJp1u7bkOHDtWJEyd8y+7du51uyUh9fb3S0tK0evXqFrcvX75cq1at0ksvvaR9+/apV69eys3N1cWLFwPcadu1dmySNH78eL9xfO211wLYobmdO3cqPz9fe/fu1bZt29TY2KicnBzV19f7aubPn6+3335bGzZs0M6dO3X8+HFNmjTJwa7tsXNskvTQQw/5jd3y5csd6thhVhc1cuRIKz8/3/f48uXLVlJSklVYWOhgV9dvyZIlVlpamtNttDtJVnFxse9xU1OTlZCQYP3qV7/yrTt79qwVHh5uvfbaaw50aO6bx2ZZljV9+nTrnnvucaSf9nby5ElLkrVz507Lsr4ap27dulkbNmzw1fzf//2fJcnas2ePU20a+eaxWZZl3XHHHdajjz7qXFNBpEvOQC5duqSysjJlZ2f71oWEhCg7O1t79uxxsLP2cfToUSUlJSk1NVXTpk1TdXW10y21u6qqKtXW1vqNodvtVkZGRpcYQ0kqLS1VXFychgwZojlz5ujMmTNOt2TE4/FIkqKjoyVJZWVlamxs9Bu7m2++WQMGDOh0Y/fNY7ti3bp1iomJ0bBhw7Ro0SJduHDBifYc12Vupvh1p0+f1uXLlxUfH++3Pj4+XkeOHHGoq/aRkZGhoqIiDRkyRCdOnNDSpUs1ZswYHTp0SJGRkU63125qa2slqcUxvLKtMxs/frwmTZqklJQUVVZWavHixcrLy9OePXsUGhrqdHu2NTU1ad68eRo9erSGDRsm6aux6969u/r06eNX29nGrqVjk6SpU6cqOTlZSUlJOnjwoJ544glVVFTorbfecrBbZ3TJAOnK8vLyfD+PGDFCGRkZSk5O1ptvvqmZM2c62BnaYsqUKb6fhw8frhEjRmjQoEEqLS3VuHHjHOysbfLz83Xo0KFOex3uWq52bA8//LDv5+HDhysxMVHjxo1TZWWlBg0aFOg2HdUlT2HFxMQoNDS02ac+6urqlJCQ4FBXHaNPnz4aPHiwjh075nQr7erKOP0zjKEkpaamKiYmplONY0FBgTZv3qwdO3b4fZVCQkKCLl26pLNnz/rVd6axu9qxtSQjI0OSOtXYtZcuGSDdu3dXenq6SkpKfOuamppUUlKiUaNGOdhZ+zt//rwqKyuVmJjodCvtKiUlRQkJCX5j6PV6tW/fvi43hpL02Wef6cyZM51iHC3LUkFBgYqLi/Xee+8pJSXFb3t6erq6devmN3YVFRWqrq4O+rFr7dhaUl5eLkmdYuzandNX8TvK66+/boWHh1tFRUXW3//+d+vhhx+2+vTpY9XW1jrd2nX56U9/apWWllpVVVXW+++/b2VnZ1sxMTHWyZMnnW6tzc6dO2cdOHDAOnDggCXJ+vWvf20dOHDA+vTTTy3Lsqxf/OIXVp8+faxNmzZZBw8etO655x4rJSXF+uKLLxzuvHXXOrZz585Zjz32mLVnzx6rqqrK2r59u/Xtb3/buummm6yLFy863Xqr5syZY7ndbqu0tNQ6ceKEb7lw4YKvZvbs2daAAQOs9957z9q/f781atQoa9SoUQ52bU9rx3bs2DHr2Weftfbv329VVVVZmzZtslJTU63MzEyHO3dGlw0Qy7Ks3/72t9aAAQOs7t27WyNHjrT27t3rdEvX7b777rMSExOt7t27W9/61res++67zzp27JjTbRnZsWOHJanZMn36dMuyvvoo71NPPWXFx8db4eHh1rhx46yKigpnm7bpWsd24cIFKycnx4qNjbW6detmJScnWw899FCn+eWmpeOSZK1du9ZX88UXX1iPPPKI1bdvX6tnz57Wvffea504ccK5pm1q7diqq6utzMxMKzo62goPD7duvPFG6/HHH7c8Ho+zjTuE27kDAIx0yWsgAICOR4AAAIwQIAAAIwQIAMAIAQIAMEKAAACMECAAACMECADACAECADBCgAAAjBAgAAAjBAgAwAgBAgAwQoAAAIwQIAAAIwQIAMAIAQIAMEKAAACMECAAACMECADACAECADBCgAAAjPw/CvdvI2K2J4cAAAAASUVORK5CYII=;clipPath=inset(11.67% 10.33% 11.67% 12.67%);" parent="1" vertex="1">
          <mxGeometry x="557" y="117.5" width="30" height="29.87" as="geometry" />
        </mxCell>
        <mxCell id="Pd571a1XGvd4QOsNYKeU-55" value="4" style="text;html=1;strokeColor=none;fillColor=none;align=center;verticalAlign=middle;whiteSpace=wrap;rounded=0;" parent="1" vertex="1">
          <mxGeometry x="567" y="380" width="10" height="7.5" as="geometry" />
        </mxCell>
        <mxCell id="Pd571a1XGvd4QOsNYKeU-69" style="edgeStyle=orthogonalEdgeStyle;rounded=0;orthogonalLoop=1;jettySize=auto;html=1;entryX=0.793;entryY=0.983;entryDx=0;entryDy=0;entryPerimeter=0;exitX=0.043;exitY=-0.14;exitDx=0;exitDy=0;exitPerimeter=0;strokeColor=#FF0000;" parent="1" source="Pd571a1XGvd4QOsNYKeU-67" target="Pd571a1XGvd4QOsNYKeU-29" edge="1">
          <mxGeometry relative="1" as="geometry" />
        </mxCell>
        <mxCell id="Pd571a1XGvd4QOsNYKeU-67" value="&lt;font style=&quot;font-size: 8px;&quot;&gt;Loss(y_pre, y_gt)&lt;/font&gt;" style="text;html=1;strokeColor=none;fillColor=none;align=center;verticalAlign=middle;whiteSpace=wrap;rounded=0;fontStyle=1" parent="1" vertex="1">
          <mxGeometry x="165" y="387.5" width="70" height="12.5" as="geometry" />
        </mxCell>
        <mxCell id="Pd571a1XGvd4QOsNYKeU-70" style="edgeStyle=orthogonalEdgeStyle;rounded=0;orthogonalLoop=1;jettySize=auto;html=1;strokeColor=#FF0000;" parent="1" edge="1">
          <mxGeometry relative="1" as="geometry">
            <mxPoint x="168" y="330" as="sourcePoint" />
            <mxPoint x="168" y="310" as="targetPoint" />
          </mxGeometry>
        </mxCell>
        <mxCell id="Pd571a1XGvd4QOsNYKeU-71" style="edgeStyle=orthogonalEdgeStyle;rounded=0;orthogonalLoop=1;jettySize=auto;html=1;strokeColor=#FF0000;" parent="1" edge="1">
          <mxGeometry relative="1" as="geometry">
            <mxPoint x="167" y="280" as="sourcePoint" />
            <mxPoint x="167" y="260" as="targetPoint" />
          </mxGeometry>
        </mxCell>
        <mxCell id="Pd571a1XGvd4QOsNYKeU-72" style="edgeStyle=orthogonalEdgeStyle;rounded=0;orthogonalLoop=1;jettySize=auto;html=1;strokeColor=#FF0000;" parent="1" edge="1">
          <mxGeometry relative="1" as="geometry">
            <mxPoint x="167" y="230" as="sourcePoint" />
            <mxPoint x="167" y="210" as="targetPoint" />
          </mxGeometry>
        </mxCell>
        <mxCell id="Pd571a1XGvd4QOsNYKeU-73" value="" style="verticalLabelPosition=bottom;html=1;verticalAlign=top;strokeWidth=2;shape=mxgraph.lean_mapping.physical_pull;pointerEvents=1;rotation=-135;strokeColor=#FF0000;" parent="1" vertex="1">
          <mxGeometry x="386" y="327.5" width="20" height="20" as="geometry" />
        </mxCell>
        <mxCell id="Pd571a1XGvd4QOsNYKeU-75" value="" style="verticalLabelPosition=bottom;html=1;verticalAlign=top;strokeWidth=2;shape=mxgraph.lean_mapping.physical_pull;pointerEvents=1;rotation=-135;strokeColor=#FF0000;" parent="1" vertex="1">
          <mxGeometry x="386" y="275" width="20" height="20" as="geometry" />
        </mxCell>
        <mxCell id="Pd571a1XGvd4QOsNYKeU-76" value="" style="verticalLabelPosition=bottom;html=1;verticalAlign=top;strokeWidth=2;shape=mxgraph.lean_mapping.physical_pull;pointerEvents=1;rotation=-135;strokeColor=#FF0000;" parent="1" vertex="1">
          <mxGeometry x="386" y="225" width="20" height="20" as="geometry" />
        </mxCell>
        <mxCell id="Pd571a1XGvd4QOsNYKeU-77" value="" style="verticalLabelPosition=bottom;html=1;verticalAlign=top;strokeWidth=2;shape=mxgraph.lean_mapping.physical_pull;pointerEvents=1;rotation=-135;strokeColor=#FF0000;" parent="1" vertex="1">
          <mxGeometry x="386" y="175" width="20" height="20" as="geometry" />
        </mxCell>
        <mxCell id="Pd571a1XGvd4QOsNYKeU-81" value="" style="verticalLabelPosition=bottom;html=1;verticalAlign=top;strokeWidth=2;shape=mxgraph.lean_mapping.physical_pull;pointerEvents=1;rotation=-135;strokeColor=#FF0000;" parent="1" vertex="1">
          <mxGeometry x="632" y="277.5" width="20" height="20" as="geometry" />
        </mxCell>
        <mxCell id="Pd571a1XGvd4QOsNYKeU-82" value="" style="verticalLabelPosition=bottom;html=1;verticalAlign=top;strokeWidth=2;shape=mxgraph.lean_mapping.physical_pull;pointerEvents=1;rotation=-135;strokeColor=#FF0000;" parent="1" vertex="1">
          <mxGeometry x="632" y="175" width="20" height="20" as="geometry" />
        </mxCell>
        <mxCell id="Pd571a1XGvd4QOsNYKeU-83" value="Node1" style="text;html=1;strokeColor=none;fillColor=none;align=center;verticalAlign=middle;whiteSpace=wrap;rounded=0;" parent="1" vertex="1">
          <mxGeometry x="462" y="167.5" width="60" height="30" as="geometry" />
        </mxCell>
        <mxCell id="Pd571a1XGvd4QOsNYKeU-84" value="Node2" style="text;html=1;strokeColor=none;fillColor=none;align=center;verticalAlign=middle;whiteSpace=wrap;rounded=0;" parent="1" vertex="1">
          <mxGeometry x="462" y="260" width="60" height="30" as="geometry" />
        </mxCell>
        <mxCell id="Pd571a1XGvd4QOsNYKeU-85" style="edgeStyle=orthogonalEdgeStyle;rounded=0;orthogonalLoop=1;jettySize=auto;html=1;strokeColor=#FF0000;" parent="1" edge="1">
          <mxGeometry relative="1" as="geometry">
            <mxPoint x="163" y="450" as="sourcePoint" />
            <mxPoint x="208" y="450" as="targetPoint" />
          </mxGeometry>
        </mxCell>
        <mxCell id="Pd571a1XGvd4QOsNYKeU-87" style="edgeStyle=orthogonalEdgeStyle;rounded=0;orthogonalLoop=1;jettySize=auto;html=1;strokeColor=#000000;" parent="1" edge="1">
          <mxGeometry relative="1" as="geometry">
            <mxPoint x="54" y="450" as="sourcePoint" />
            <mxPoint x="99" y="450" as="targetPoint" />
          </mxGeometry>
        </mxCell>
        <mxCell id="Pd571a1XGvd4QOsNYKeU-88" value=": Forward" style="text;html=1;strokeColor=none;fillColor=none;align=center;verticalAlign=middle;whiteSpace=wrap;rounded=0;" parent="1" vertex="1">
          <mxGeometry x="96" y="435" width="60" height="30" as="geometry" />
        </mxCell>
        <mxCell id="Pd571a1XGvd4QOsNYKeU-89" value=": Backpropagation" style="text;html=1;strokeColor=none;fillColor=none;align=center;verticalAlign=middle;whiteSpace=wrap;rounded=0;" parent="1" vertex="1">
          <mxGeometry x="209" y="435" width="100" height="30" as="geometry" />
        </mxCell>
        <mxCell id="Pd571a1XGvd4QOsNYKeU-92" value="NodeX" style="text;html=1;strokeColor=none;fillColor=none;align=center;verticalAlign=middle;whiteSpace=wrap;rounded=0;" parent="1" vertex="1">
          <mxGeometry x="303" y="435" width="60" height="30" as="geometry" />
        </mxCell>
        <mxCell id="Pd571a1XGvd4QOsNYKeU-93" value="" style="rounded=0;whiteSpace=wrap;html=1;" parent="1" vertex="1">
          <mxGeometry x="353" y="440" width="40" height="20" as="geometry" />
        </mxCell>
        <mxCell id="Pd571a1XGvd4QOsNYKeU-94" value=": AI computer node from different computer server&lt;br&gt;Inspired by A ROS node, pub/sub concept" style="text;html=1;strokeColor=none;fillColor=none;align=center;verticalAlign=middle;whiteSpace=wrap;rounded=0;" parent="1" vertex="1">
          <mxGeometry x="393" y="437" width="280" height="30" as="geometry" />
        </mxCell>
        <mxCell id="Pd571a1XGvd4QOsNYKeU-95" value="LayerX" style="rounded=1;whiteSpace=wrap;html=1;" parent="1" vertex="1">
          <mxGeometry x="49" y="467" width="60" height="30" as="geometry" />
        </mxCell>
        <mxCell id="Pd571a1XGvd4QOsNYKeU-96" value=": Model Layer" style="text;html=1;strokeColor=none;fillColor=none;align=center;verticalAlign=middle;whiteSpace=wrap;rounded=0;" parent="1" vertex="1">
          <mxGeometry x="114" y="467" width="75" height="30" as="geometry" />
        </mxCell>
      </root>
    </mxGraphModel>
  </diagram>
</mxfile>
